<svg width="402" height="64" viewBox="0 0 402 64" fill="none" xmlns="http://www.w3.org/2000/svg">
<rect x="0.7" y="0.7" width="62.6" height="62.6" rx="31.3" stroke="url(#paint0_linear_237_28932)" stroke-width="1.4"/>
<path fill-rule="evenodd" clip-rule="evenodd" d="M40.5156 20.4387C43.9836 21.2434 45.3102 23.2713 46.9734 26.0625H40.5156V20.4387ZM20.2483 26.2969C20.9273 26.2969 21.4202 26.6246 21.4202 27.3906C21.4202 28.0367 20.8974 28.5607 20.2516 28.5625H13.1719C12.5246 28.5625 12 29.0874 12 29.7344C12 30.3816 12.5246 30.9062 13.1719 30.9062H23.7188C24.3721 30.9062 24.8952 31.4305 24.8952 32.0781C24.8952 32.7254 24.3706 33.25 23.7234 33.25H13.1719C12.5246 33.25 12 33.7746 12 34.4219C12 35.0691 12.5246 35.5938 13.1719 35.5938H15.75V39.1094C15.75 39.7566 16.2746 40.2812 16.9219 40.2812H19.2775C19.6974 42.3498 21.5252 43.875 23.6797 43.875C25.8342 43.875 27.662 42.3498 28.0819 40.2812H39.9806C40.4005 42.3498 42.2283 43.875 44.3828 43.875C46.5373 43.875 48.3651 42.3498 48.785 40.2812H50.8281C51.4754 40.2812 52 39.7566 52 39.1094V32.0781C52 28.6397 48.3733 28.4114 48.3699 28.4062H39.3438C38.6965 28.4062 38.1719 27.8816 38.1719 27.2344V20.2031H16.9219C16.2746 20.2031 15.75 20.7277 15.75 21.375V23.9531H14.3438C13.6965 23.9531 13.1719 24.4777 13.1719 25.125C13.1719 25.7723 13.6965 26.2969 14.3438 26.2969H20.2483ZM45.902 37.8637C46.7409 38.7026 46.7409 40.0634 45.902 40.9023C44.5525 42.2518 42.2344 41.2917 42.2344 39.3828C42.2344 37.4742 44.5525 36.5141 45.902 37.8637ZM25.1988 37.8637C26.0378 38.7026 26.0378 40.0634 25.1988 40.9023C23.8494 42.2518 21.5312 41.2917 21.5312 39.3828C21.5312 37.4742 23.8494 36.5141 25.1988 37.8637Z" fill="#007745"/>
<path d="M94.416 18.208V19.856H98.16C97.824 21.408 96.528 22.416 94.544 22.416C93.312 22.416 92.304 22.032 91.536 21.28C90.784 20.528 90.4 19.568 90.4 18.416C90.4 17.264 90.784 16.304 91.536 15.536C92.288 14.768 93.264 14.384 94.432 14.384C95.888 14.384 97.136 15.088 97.728 16.16L99.312 15.248C98.352 13.632 96.528 12.592 94.432 12.592C92.768 12.592 91.376 13.152 90.24 14.288C89.12 15.408 88.56 16.784 88.56 18.4C88.56 20.032 89.12 21.408 90.24 22.528C91.376 23.648 92.8 24.208 94.528 24.208C96.16 24.208 97.488 23.728 98.496 22.752C99.504 21.776 100.016 20.512 100.016 18.976V18.208H94.416ZM103.202 14.752C103.634 14.304 103.634 13.664 103.218 13.232C102.786 12.8 102.114 12.8 101.682 13.232C101.266 13.664 101.266 14.304 101.682 14.752C102.13 15.168 102.77 15.168 103.202 14.752ZM103.314 24V16H101.586V24H103.314ZM111.657 17.136C111.001 16.24 110.073 15.792 108.857 15.792C107.753 15.792 106.825 16.192 106.041 17.008C105.257 17.824 104.873 18.816 104.873 20C104.873 21.168 105.257 22.176 106.041 22.992C106.825 23.808 107.753 24.208 108.857 24.208C110.073 24.208 111.001 23.76 111.657 22.848V24H113.385V16H111.657V17.136ZM107.321 21.84C106.841 21.344 106.601 20.736 106.601 20C106.601 19.264 106.841 18.656 107.321 18.176C107.801 17.68 108.409 17.44 109.129 17.44C109.849 17.44 110.457 17.68 110.937 18.176C111.417 18.656 111.657 19.264 111.657 20C111.657 20.736 111.417 21.344 110.937 21.84C110.457 22.32 109.849 22.56 109.129 22.56C108.409 22.56 107.801 22.32 107.321 21.84ZM119.175 24.208C120.359 24.208 121.351 23.808 122.167 22.992C122.983 22.176 123.399 21.184 123.399 20C123.399 18.816 122.983 17.824 122.167 17.008C121.351 16.192 120.359 15.792 119.175 15.792C118.007 15.792 116.999 16.192 116.183 17.008C115.367 17.824 114.951 18.816 114.951 20C114.951 21.184 115.367 22.176 116.183 22.992C116.999 23.808 118.007 24.208 119.175 24.208ZM117.399 21.808C116.919 21.328 116.679 20.72 116.679 20C116.679 19.28 116.919 18.672 117.399 18.192C117.879 17.712 118.471 17.472 119.175 17.472C119.879 17.472 120.471 17.712 120.951 18.192C121.431 18.672 121.671 19.28 121.671 20C121.671 20.72 121.431 21.328 120.951 21.808C120.471 22.288 119.879 22.528 119.175 22.528C118.471 22.528 117.879 22.288 117.399 21.808ZM133.169 15.792C132.033 15.792 131.217 16.208 130.689 17.024V12.8H128.961V24H130.689V19.712C130.689 18.16 131.505 17.408 132.721 17.408C133.825 17.408 134.513 18.064 134.513 19.264V24H136.241V19.088C136.241 17.04 135.009 15.792 133.169 15.792ZM142.63 12.8H140.55L142.246 14.96H143.91L142.63 12.8ZM144.438 17.136C143.782 16.24 142.854 15.792 141.638 15.792C140.534 15.792 139.606 16.192 138.822 17.008C138.038 17.824 137.654 18.816 137.654 20C137.654 21.168 138.038 22.176 138.822 22.992C139.606 23.808 140.534 24.208 141.638 24.208C142.854 24.208 143.782 23.76 144.438 22.848V24H146.166V16H144.438V17.136ZM140.102 21.84C139.622 21.344 139.382 20.736 139.382 20C139.382 19.264 139.622 18.656 140.102 18.176C140.582 17.68 141.19 17.44 141.91 17.44C142.63 17.44 143.238 17.68 143.718 18.176C144.198 18.656 144.438 19.264 144.438 20C144.438 20.736 144.198 21.344 143.718 21.84C143.238 22.32 142.63 22.56 141.91 22.56C141.19 22.56 140.582 22.32 140.102 21.84ZM152.388 15.792C151.252 15.792 150.436 16.208 149.908 17.024V16H148.18V24H149.908V19.712C149.908 18.16 150.724 17.408 151.94 17.408C153.044 17.408 153.732 18.064 153.732 19.264V24H155.46V19.088C155.46 17.04 154.228 15.792 152.388 15.792ZM163.689 17.184C163.033 16.256 162.105 15.792 160.905 15.792C159.769 15.792 158.825 16.192 158.041 17.008C157.257 17.808 156.873 18.784 156.873 19.92C156.873 21.056 157.257 22.032 158.041 22.848C158.825 23.648 159.769 24.048 160.905 24.048C162.105 24.048 163.033 23.584 163.689 22.656V23.632C163.689 25.024 162.793 25.84 161.305 25.84C160.169 25.84 159.385 25.424 158.969 24.608L157.481 25.472C158.169 26.768 159.433 27.408 161.273 27.408C162.409 27.408 163.385 27.088 164.185 26.432C164.985 25.776 165.385 24.848 165.385 23.632V16H163.689V17.184ZM159.321 21.712C158.841 21.232 158.601 20.64 158.601 19.92C158.601 19.2 158.841 18.608 159.321 18.128C159.817 17.648 160.424 17.408 161.145 17.408C161.865 17.408 162.473 17.648 162.953 18.128C163.449 18.608 163.689 19.2 163.689 19.92C163.689 20.64 163.449 21.232 162.953 21.712C162.473 22.192 161.865 22.432 161.145 22.432C160.424 22.432 159.817 22.192 159.321 21.712ZM175.863 16H173.879V13.76L172.151 14.272V16H170.679V17.664H172.151V21.504C172.151 23.6 173.223 24.32 175.863 24V22.448C174.551 22.512 173.879 22.528 173.879 21.504V17.664H175.863V16ZM181.284 24.208C182.468 24.208 183.46 23.808 184.276 22.992C185.092 22.176 185.508 21.184 185.508 20C185.508 18.816 185.092 17.824 184.276 17.008C183.46 16.192 182.468 15.792 181.284 15.792C180.116 15.792 179.108 16.192 178.292 17.008C177.476 17.824 177.06 18.816 177.06 20C177.06 21.184 177.476 22.176 178.292 22.992C179.108 23.808 180.116 24.208 181.284 24.208ZM179.508 21.808C179.028 21.328 178.788 20.72 178.788 20C178.788 19.28 179.028 18.672 179.508 18.192C179.988 17.712 180.58 17.472 181.284 17.472C181.988 17.472 182.58 17.712 183.06 18.192C183.54 18.672 183.78 19.28 183.78 20C183.78 20.72 183.54 21.328 183.06 21.808C182.58 22.288 181.988 22.528 181.284 22.528C180.58 22.528 179.988 22.288 179.508 21.808ZM191.599 12.8H189.519L191.215 14.96H192.879L191.599 12.8ZM193.407 17.136C192.751 16.24 191.823 15.792 190.607 15.792C189.503 15.792 188.575 16.192 187.791 17.008C187.007 17.824 186.623 18.816 186.623 20C186.623 21.168 187.007 22.176 187.791 22.992C188.575 23.808 189.503 24.208 190.607 24.208C191.823 24.208 192.751 23.76 193.407 22.848V24H195.135V16H193.407V17.136ZM189.071 21.84C188.591 21.344 188.351 20.736 188.351 20C188.351 19.264 188.591 18.656 189.071 18.176C189.551 17.68 190.159 17.44 190.879 17.44C191.599 17.44 192.207 17.68 192.687 18.176C193.167 18.656 193.407 19.264 193.407 20C193.407 20.736 193.167 21.344 192.687 21.84C192.207 22.32 191.599 22.56 190.879 22.56C190.159 22.56 189.551 22.32 189.071 21.84ZM201.357 15.792C200.221 15.792 199.405 16.208 198.877 17.024V16H197.149V24H198.877V19.712C198.877 18.16 199.693 17.408 200.909 17.408C202.013 17.408 202.701 18.064 202.701 19.264V24H204.429V19.088C204.429 17.04 203.197 15.792 201.357 15.792ZM216.625 17.152C215.969 16.24 215.041 15.792 213.825 15.792C212.721 15.792 211.793 16.208 211.009 17.024C210.225 17.84 209.841 18.832 209.841 20C209.841 21.184 210.225 22.176 211.009 22.992C211.793 23.808 212.721 24.208 213.825 24.208C215.041 24.208 215.969 23.76 216.625 22.864V27.2H218.353V16H216.625V17.152ZM212.289 21.84C211.809 21.344 211.569 20.736 211.569 20C211.569 19.264 211.809 18.656 212.289 18.176C212.769 17.68 213.377 17.44 214.097 17.44C214.817 17.44 215.425 17.68 215.905 18.176C216.385 18.656 216.625 19.264 216.625 20C216.625 20.736 216.385 21.344 215.905 21.84C215.425 22.32 214.817 22.56 214.097 22.56C213.377 22.56 212.769 22.32 212.289 21.84ZM225.759 20.288C225.759 21.84 224.943 22.592 223.727 22.592C222.623 22.592 221.935 21.936 221.935 20.736V16H220.207V20.912C220.207 22.96 221.439 24.208 223.279 24.208C224.415 24.208 225.231 23.792 225.759 22.976V24H227.487V16H225.759V20.288ZM234.084 14.96H235.716L234.132 12.88H232.452L230.884 14.96H232.516L233.3 13.856L234.084 14.96ZM233.284 15.792C232.116 15.792 231.108 16.192 230.292 17.008C229.476 17.824 229.06 18.816 229.06 20C229.06 21.184 229.476 22.176 230.292 22.992C231.108 23.808 232.116 24.208 233.284 24.208C234.468 24.208 235.46 23.808 236.276 22.992C237.092 22.176 237.508 21.184 237.508 20C237.508 18.816 237.092 17.824 236.276 17.008C235.46 16.192 234.468 15.792 233.284 15.792ZM231.508 21.808C231.028 21.328 230.788 20.72 230.788 20C230.788 19.28 231.028 18.672 231.508 18.192C231.988 17.712 232.58 17.472 233.284 17.472C233.988 17.472 234.58 17.712 235.06 18.192C235.54 18.672 235.78 19.28 235.78 20C235.78 20.72 235.54 21.328 235.06 21.808C234.58 22.288 233.988 22.528 233.284 22.528C232.58 22.528 231.988 22.288 231.508 21.808ZM234.948 13.44H236.484L238.068 11.424H236.132L234.948 13.44ZM242.847 24.208C244.399 24.208 245.759 23.408 246.447 22.128L244.959 21.28C244.575 22.032 243.775 22.512 242.831 22.512C242.127 22.512 241.535 22.272 241.055 21.792C240.591 21.312 240.351 20.72 240.351 20C240.351 19.28 240.591 18.688 241.055 18.208C241.535 17.728 242.127 17.488 242.831 17.488C243.791 17.488 244.559 17.952 244.927 18.72L246.415 17.856C245.775 16.592 244.399 15.792 242.847 15.792C241.647 15.792 240.639 16.192 239.823 17.008C239.023 17.808 238.623 18.8 238.623 20C238.623 21.184 239.023 22.176 239.823 22.992C240.639 23.808 241.647 24.208 242.847 24.208Z" fill="#141414"/>
<path d="M96.75 40.2L93.642 45.38L90.52 40.2H89.05V50H90.352V42.356L93.558 47.676H93.726L96.932 42.342V50H98.22V40.2H96.75ZM100.806 42.132C101.254 42.132 101.618 41.768 101.618 41.32C101.618 40.872 101.254 40.494 100.806 40.494C100.344 40.494 99.9796 40.872 99.9796 41.32C99.9796 41.768 100.344 42.132 100.806 42.132ZM101.408 50V43H100.19V50H101.408ZM107.368 42.076H108.586L107.2 40.312H105.954L104.568 42.076H105.786L106.584 41.012L107.368 42.076ZM109.986 47.06C110.014 46.878 110.028 46.696 110.028 46.514C110.028 45.492 109.706 44.624 109.048 43.91C108.404 43.182 107.564 42.818 106.542 42.818C105.464 42.818 104.582 43.168 103.896 43.868C103.21 44.568 102.874 45.45 102.874 46.5C102.874 47.564 103.224 48.446 103.91 49.146C104.61 49.832 105.52 50.182 106.626 50.182C107.998 50.182 109.02 49.65 109.706 48.6L108.67 48.012C108.25 48.698 107.578 49.034 106.654 49.034C105.324 49.034 104.358 48.306 104.12 47.06H109.986ZM106.542 43.966C107.662 43.966 108.586 44.666 108.796 45.996H104.12C104.33 44.764 105.24 43.966 106.542 43.966ZM105.59 39.934C105.59 39.094 105.898 39.108 106.528 39.626C107.508 40.312 108.53 40.074 108.53 38.352H107.578C107.578 39.178 107.284 39.164 106.64 38.646C105.674 37.96 104.638 38.184 104.638 39.934H105.59ZM114.914 42.818C113.892 42.818 113.136 43.21 112.646 44.008V43H111.428V50H112.646V46.29C112.646 44.722 113.458 43.98 114.676 43.98C115.754 43.98 116.412 44.638 116.412 45.772V50H117.63V45.702C117.63 43.924 116.552 42.818 114.914 42.818ZM126.694 42.818C125.532 42.818 124.65 43.28 124.048 44.204V43H122.83V52.8H124.048V48.796C124.65 49.72 125.532 50.182 126.694 50.182C127.674 50.182 128.514 49.832 129.2 49.118C129.886 48.404 130.236 47.522 130.236 46.5C130.236 45.478 129.886 44.61 129.2 43.896C128.514 43.182 127.674 42.818 126.694 42.818ZM126.54 49.006C125.826 49.006 125.238 48.768 124.762 48.292C124.286 47.802 124.048 47.214 124.048 46.5C124.048 45.786 124.286 45.198 124.762 44.722C125.238 44.232 125.826 43.994 126.54 43.994C127.24 43.994 127.828 44.232 128.304 44.722C128.78 45.198 129.018 45.786 129.018 46.5C129.018 47.214 128.78 47.802 128.304 48.292C127.828 48.768 127.24 49.006 126.54 49.006ZM135.176 42.818C134.154 42.818 133.398 43.21 132.908 44.008V40.2H131.69V50H132.908V46.29C132.908 44.722 133.72 43.98 134.938 43.98C136.016 43.98 136.674 44.638 136.674 45.772V50H137.892V45.702C137.892 43.924 136.814 42.818 135.176 42.818ZM139.354 42.09H140.53L141.454 40.2H140.012L139.354 42.09ZM139.592 50V43H140.81V50H139.592ZM151.978 44.204C151.376 43.28 150.494 42.818 149.346 42.818C148.352 42.818 147.498 43.168 146.812 43.882C146.126 44.582 145.776 45.436 145.776 46.458C145.776 47.48 146.126 48.334 146.812 49.048C147.498 49.762 148.352 50.112 149.346 50.112C150.48 50.112 151.362 49.65 151.978 48.712V49.706C151.978 51.036 151.096 51.848 149.64 51.848C148.506 51.848 147.736 51.456 147.358 50.672L146.294 51.274C146.868 52.38 148.044 52.982 149.612 52.982C150.592 52.982 151.432 52.688 152.132 52.114C152.832 51.54 153.182 50.742 153.182 49.706V43H151.978V44.204ZM151.978 46.458C151.978 47.172 151.74 47.76 151.264 48.236C150.788 48.712 150.2 48.95 149.486 48.95C148.772 48.95 148.184 48.712 147.708 48.236C147.232 47.76 146.994 47.172 146.994 46.458C146.994 45.758 147.232 45.17 147.708 44.694C148.184 44.218 148.772 43.98 149.486 43.98C150.2 43.98 150.788 44.218 151.264 44.694C151.74 45.17 151.978 45.758 151.978 46.458ZM155.644 42.132C156.092 42.132 156.456 41.768 156.456 41.32C156.456 40.872 156.092 40.494 155.644 40.494C155.182 40.494 154.818 40.872 154.818 41.32C154.818 41.768 155.182 42.132 155.644 42.132ZM156.246 50V43H155.028V50H156.246ZM163.9 44.204C163.298 43.28 162.416 42.818 161.254 42.818C160.274 42.818 159.434 43.182 158.748 43.896C158.062 44.61 157.712 45.478 157.712 46.5C157.712 47.522 158.062 48.404 158.748 49.118C159.434 49.832 160.274 50.182 161.254 50.182C162.416 50.182 163.298 49.72 163.9 48.796V50H165.118V43H163.9V44.204ZM161.408 49.006C160.708 49.006 160.12 48.768 159.644 48.292C159.168 47.802 158.93 47.214 158.93 46.5C158.93 45.786 159.168 45.198 159.644 44.722C160.12 44.232 160.708 43.994 161.408 43.994C162.122 43.994 162.71 44.232 163.186 44.722C163.662 45.198 163.9 45.786 163.9 46.5C163.9 47.214 163.662 47.802 163.186 48.292C162.71 48.768 162.122 49.006 161.408 49.006ZM172.871 49.118C173.585 48.404 173.949 47.536 173.949 46.5C173.949 45.464 173.585 44.596 172.871 43.882C172.157 43.168 171.275 42.818 170.253 42.818C169.231 42.818 168.349 43.168 167.635 43.882C166.921 44.596 166.571 45.464 166.571 46.5C166.571 47.536 166.921 48.404 167.635 49.118C168.349 49.832 169.231 50.182 170.253 50.182C171.275 50.182 172.157 49.832 172.871 49.118ZM170.253 48.992C169.567 48.992 168.979 48.754 168.503 48.278C168.027 47.802 167.789 47.214 167.789 46.5C167.789 45.786 168.027 45.198 168.503 44.722C168.979 44.246 169.567 44.008 170.253 44.008C170.953 44.008 171.541 44.246 172.017 44.722C172.493 45.198 172.731 45.786 172.731 46.5C172.731 47.214 172.493 47.802 172.017 48.278C171.541 48.754 170.953 48.992 170.253 48.992ZM182.371 42.818C181.349 42.818 180.593 43.21 180.103 44.008V40.2H178.885V50H180.103V46.29C180.103 44.722 180.915 43.98 182.133 43.98C183.211 43.98 183.869 44.638 183.869 45.772V50H185.087V45.702C185.087 43.924 184.009 42.818 182.371 42.818ZM190.581 40.2H189.111L190.525 42.048H191.701L190.581 40.2ZM192.583 44.204C191.981 43.28 191.099 42.818 189.937 42.818C188.957 42.818 188.117 43.182 187.431 43.896C186.745 44.61 186.395 45.478 186.395 46.5C186.395 47.522 186.745 48.404 187.431 49.118C188.117 49.832 188.957 50.182 189.937 50.182C191.099 50.182 191.981 49.72 192.583 48.796V50H193.801V43H192.583V44.204ZM190.091 49.006C189.391 49.006 188.803 48.768 188.327 48.292C187.851 47.802 187.613 47.214 187.613 46.5C187.613 45.786 187.851 45.198 188.327 44.722C188.803 44.232 189.391 43.994 190.091 43.994C190.805 43.994 191.393 44.232 191.869 44.722C192.345 45.198 192.583 45.786 192.583 46.5C192.583 47.214 192.345 47.802 191.869 48.292C191.393 48.768 190.805 49.006 190.091 49.006ZM199.133 42.818C198.111 42.818 197.355 43.21 196.865 44.008V43H195.647V50H196.865V46.29C196.865 44.722 197.677 43.98 198.895 43.98C199.973 43.98 200.631 44.638 200.631 45.772V50H201.849V45.702C201.849 43.924 200.771 42.818 199.133 42.818ZM209.359 44.204C208.757 43.28 207.875 42.818 206.727 42.818C205.733 42.818 204.879 43.168 204.193 43.882C203.507 44.582 203.157 45.436 203.157 46.458C203.157 47.48 203.507 48.334 204.193 49.048C204.879 49.762 205.733 50.112 206.727 50.112C207.861 50.112 208.743 49.65 209.359 48.712V49.706C209.359 51.036 208.477 51.848 207.021 51.848C205.887 51.848 205.117 51.456 204.739 50.672L203.675 51.274C204.249 52.38 205.425 52.982 206.993 52.982C207.973 52.982 208.813 52.688 209.513 52.114C210.213 51.54 210.563 50.742 210.563 49.706V43H209.359V44.204ZM209.359 46.458C209.359 47.172 209.121 47.76 208.645 48.236C208.169 48.712 207.581 48.95 206.867 48.95C206.153 48.95 205.565 48.712 205.089 48.236C204.613 47.76 204.375 47.172 204.375 46.458C204.375 45.758 204.613 45.17 205.089 44.694C205.565 44.218 206.153 43.98 206.867 43.98C207.581 43.98 208.169 44.218 208.645 44.694C209.121 45.17 209.359 45.758 209.359 46.458ZM219.716 43H217.854V41.04L216.636 41.404V43H215.25V44.176H216.636V47.97C216.636 49.706 217.588 50.28 219.716 50V48.908C218.47 48.964 217.854 49.048 217.854 47.97V44.176H219.716V43ZM224.587 52.828C225.035 52.828 225.399 52.464 225.399 52.016C225.399 51.568 225.035 51.19 224.587 51.19C224.125 51.19 223.761 51.568 223.761 52.016C223.761 52.464 224.125 52.828 224.587 52.828ZM226.995 44.204C226.393 43.28 225.511 42.818 224.349 42.818C223.369 42.818 222.529 43.182 221.843 43.896C221.157 44.61 220.807 45.478 220.807 46.5C220.807 47.522 221.157 48.404 221.843 49.118C222.529 49.832 223.369 50.182 224.349 50.182C225.511 50.182 226.393 49.72 226.995 48.796V50H228.213V43H226.995V44.204ZM224.503 49.006C223.803 49.006 223.215 48.768 222.739 48.292C222.263 47.802 222.025 47.214 222.025 46.5C222.025 45.786 222.263 45.198 222.739 44.722C223.215 44.232 223.803 43.994 224.503 43.994C225.217 43.994 225.805 44.232 226.281 44.722C226.757 45.198 226.995 45.786 226.995 46.5C226.995 47.214 226.757 47.802 226.281 48.292C225.805 48.768 225.217 49.006 224.503 49.006ZM230.675 42.132C231.123 42.132 231.487 41.768 231.487 41.32C231.487 40.872 231.123 40.494 230.675 40.494C230.213 40.494 229.849 40.872 229.849 41.32C229.849 41.768 230.213 42.132 230.675 42.132ZM231.277 50V43H230.059V50H231.277ZM242.823 44.358H238.063V40.2H236.761V50H238.063V45.59H242.823V50H244.111V40.2H242.823V44.358ZM249.876 40.2H248.406L249.82 42.048H250.996L249.876 40.2ZM251.878 44.204C251.276 43.28 250.394 42.818 249.232 42.818C248.252 42.818 247.412 43.182 246.726 43.896C246.04 44.61 245.69 45.478 245.69 46.5C245.69 47.522 246.04 48.404 246.726 49.118C247.412 49.832 248.252 50.182 249.232 50.182C250.394 50.182 251.276 49.72 251.878 48.796V50H253.096V43H251.878V44.204ZM249.386 49.006C248.686 49.006 248.098 48.768 247.622 48.292C247.146 47.802 246.908 47.214 246.908 46.5C246.908 45.786 247.146 45.198 247.622 44.722C248.098 44.232 248.686 43.994 249.386 43.994C250.1 43.994 250.688 44.232 251.164 44.722C251.64 45.198 251.878 45.786 251.878 46.5C251.878 47.214 251.64 47.802 251.164 48.292C250.688 48.768 250.1 49.006 249.386 49.006ZM264.658 47.508L259.618 40.2H258.568V50H259.87V42.678L264.91 50H265.96V40.2H264.658V47.508ZM271.99 42.048H273.208L271.822 40.284H270.576L269.19 42.048H270.408L271.206 40.984L271.99 42.048ZM268.602 43.882C267.888 44.596 267.538 45.464 267.538 46.5C267.538 47.536 267.888 48.404 268.602 49.118C269.316 49.832 270.198 50.182 271.22 50.182C272.242 50.182 273.124 49.832 273.838 49.118C274.552 48.404 274.916 47.536 274.916 46.5C274.916 45.464 274.552 44.596 273.838 43.882C273.124 43.168 272.242 42.818 271.22 42.818C270.198 42.818 269.316 43.168 268.602 43.882ZM271.22 48.992C270.534 48.992 269.946 48.754 269.47 48.278C268.994 47.802 268.756 47.214 268.756 46.5C268.756 45.786 268.994 45.198 269.47 44.722C269.946 44.246 270.534 44.008 271.22 44.008C271.92 44.008 272.508 44.246 272.984 44.722C273.46 45.198 273.698 45.786 273.698 46.5C273.698 47.214 273.46 47.802 272.984 48.278C272.508 48.754 271.92 48.992 271.22 48.992ZM271.22 52.828C271.668 52.828 272.032 52.464 272.032 52.016C272.032 51.568 271.668 51.19 271.22 51.19C270.758 51.19 270.394 51.568 270.394 52.016C270.394 52.464 270.758 52.828 271.22 52.828ZM276.968 42.132C277.416 42.132 277.78 41.768 277.78 41.32C277.78 40.872 277.416 40.494 276.968 40.494C276.506 40.494 276.142 40.872 276.142 41.32C276.142 41.768 276.506 42.132 276.968 42.132ZM277.57 50V43H276.352V50H277.57Z" fill="#616161"/>
<defs>
<linearGradient id="paint0_linear_237_28932" x1="64" y1="6.35783e-05" x2="-1.40689" y2="1.47172" gradientUnits="userSpaceOnUse">
<stop stop-color="#00A0FB"/>
<stop offset="1" stop-color="#F0D905"/>
</linearGradient>
</defs>
</svg>
