<svg width="402" height="64" viewBox="0 0 402 64" fill="none" xmlns="http://www.w3.org/2000/svg">
<rect x="0.7" y="0.7" width="62.6" height="62.6" rx="31.3" stroke="url(#paint0_linear_237_28933)" stroke-width="1.4"/>
<path d="M41.5959 36.9708C40.2494 38.8201 38.0683 40.0245 35.6109 40.0245H32.1627C30.9716 40.0245 29.9572 39.2683 29.5731 38.2099C29.094 38.0665 28.628 37.8824 28.1803 37.6594C27.2195 37.182 26.3471 36.5353 25.5791 35.7341C20.5975 36.8285 16.8691 41.2673 16.8691 46.5777V47.2718C16.8691 48.2259 17.6427 48.9994 18.5968 48.9994H45.4022C46.3564 48.9994 47.1299 48.2259 47.1299 47.2718V46.5777C47.1298 42.4754 44.9047 38.8931 41.5959 36.9708Z" fill="#007745"/>
<path d="M23.7427 32.1732C24.4852 32.1732 25.1315 31.7617 25.4664 31.1543C25.4752 31.1784 25.4841 31.2023 25.4931 31.2262L25.5011 31.2477C26.2866 33.3153 27.8151 35.0486 29.8305 35.806C30.3179 35.0315 31.1798 34.5164 32.1626 34.5164H35.6107C35.9547 34.5164 36.2748 34.4193 36.5554 34.2624C37.0267 33.9989 37.4506 33.3303 37.6694 32.976C38.0197 32.4089 38.291 31.8082 38.5316 31.1533C38.6666 31.3983 38.852 31.6118 39.0756 31.7799V32.6254C39.0756 34.5359 37.5213 36.0903 35.6107 36.0903H32.1625C31.5107 36.0903 30.9822 36.6188 30.9822 37.2706C30.9822 37.9226 31.5107 38.451 32.1625 38.451H35.6107C38.8229 38.451 41.4363 35.8376 41.4363 32.6254V31.7799C41.9141 31.4209 42.2232 30.8496 42.2232 30.206V25.282C42.2232 24.6252 41.9011 24.0441 41.4065 23.6868C41.0229 18.8326 36.9503 15 31.9993 15C27.0482 15 22.9757 18.8326 22.5921 23.6867C22.0975 24.044 21.7754 24.6252 21.7754 25.282V30.2059C21.7754 31.2955 22.6605 32.1732 23.7427 32.1732ZM31.9993 17.3608C35.6644 17.3608 38.6875 20.1617 39.0408 23.7355C38.8075 23.9188 38.6185 24.1524 38.4879 24.4188C37.3742 21.513 34.8879 19.4899 31.9992 19.4899C29.0483 19.4899 26.6019 21.5825 25.5149 24.4072L25.5105 24.4189C25.3799 24.1524 25.1909 23.9189 24.9576 23.7356C25.3112 20.1617 28.3341 17.3608 31.9993 17.3608Z" fill="#007745"/>
<path d="M95.76 17.392H90.96V12.8H89.12V24H90.96V19.152H95.76V24H97.6V12.8H95.76V17.392ZM104.303 14.96H105.935L104.351 12.88H102.671L101.103 14.96H102.735L103.519 13.856L104.303 14.96ZM103.503 15.792C102.335 15.792 101.327 16.192 100.511 17.008C99.6948 17.824 99.2788 18.816 99.2788 20C99.2788 21.184 99.6948 22.176 100.511 22.992C101.327 23.808 102.335 24.208 103.503 24.208C104.687 24.208 105.679 23.808 106.495 22.992C107.311 22.176 107.727 21.184 107.727 20C107.727 18.816 107.311 17.824 106.495 17.008C105.679 16.192 104.687 15.792 103.503 15.792ZM101.727 21.808C101.247 21.328 101.007 20.72 101.007 20C101.007 19.28 101.247 18.672 101.727 18.192C102.207 17.712 102.799 17.472 103.503 17.472C104.207 17.472 104.799 17.712 105.279 18.192C105.759 18.672 105.999 19.28 105.999 20C105.999 20.72 105.759 21.328 105.279 21.808C104.799 22.288 104.207 22.528 103.503 22.528C102.799 22.528 102.207 22.288 101.727 21.808ZM102.479 12.464C102.479 11.632 102.767 11.6 103.423 12.128C104.639 12.944 105.919 12.656 105.919 10.48H104.591C104.591 11.312 104.303 11.344 103.679 10.832C102.463 10.032 101.151 10.288 101.151 12.464H102.479ZM117.753 16H115.769V13.76L114.041 14.272V16H112.569V17.664H114.041V21.504C114.041 23.6 115.113 24.32 117.753 24V22.448C116.441 22.512 115.769 22.528 115.769 21.504V17.664H117.753V16ZM121.127 16H119.399V24H121.127V19.968C121.127 19.152 121.367 18.56 121.863 18.208C122.359 17.84 122.935 17.68 123.591 17.728V15.856C122.391 15.856 121.559 16.352 121.127 17.344V16ZM129.411 27.2C129.843 26.752 129.843 26.112 129.427 25.68C128.995 25.248 128.323 25.248 127.891 25.68C127.475 26.112 127.475 26.752 127.891 27.2C128.339 27.616 128.979 27.616 129.411 27.2ZM128.643 24.208C129.827 24.208 130.819 23.808 131.635 22.992C132.451 22.176 132.867 21.184 132.867 20C132.867 18.88 132.499 17.936 131.763 17.136C132.563 16.896 132.867 16.256 132.867 15.136V14.864H131.411V15.136C131.411 15.744 131.315 16 130.723 16H130.019C129.587 15.856 129.139 15.792 128.643 15.792C127.475 15.792 126.467 16.192 125.651 17.008C124.835 17.824 124.419 18.816 124.419 20C124.419 21.184 124.835 22.176 125.651 22.992C126.467 23.808 127.475 24.208 128.643 24.208ZM126.867 21.808C126.387 21.328 126.147 20.72 126.147 20C126.147 19.28 126.387 18.672 126.867 18.192C127.347 17.712 127.939 17.472 128.643 17.472C129.347 17.472 129.939 17.712 130.419 18.192C130.899 18.672 131.139 19.28 131.139 20C131.139 20.72 130.899 21.328 130.419 21.808C129.939 22.288 129.347 22.528 128.643 22.528C127.939 22.528 127.347 22.288 126.867 21.808ZM142.894 16H140.91V13.76L139.182 14.272V16H137.71V17.664H139.182V21.504C139.182 23.6 140.254 24.32 142.894 24V22.448C141.582 22.512 140.91 22.528 140.91 21.504V17.664H142.894V16ZM146.267 16H144.539V24H146.267V19.968C146.267 19.152 146.507 18.56 147.003 18.208C147.499 17.84 148.075 17.68 148.731 17.728V15.856C147.531 15.856 146.699 16.352 146.267 17.344V16ZM153.96 27.2C154.392 26.752 154.392 26.112 153.976 25.68C153.544 25.248 152.872 25.248 152.44 25.68C152.024 26.112 152.024 26.752 152.44 27.2C152.888 27.616 153.528 27.616 153.96 27.2ZM155.4 20.288C155.4 21.84 154.584 22.592 153.368 22.592C152.264 22.592 151.576 21.936 151.576 20.736V16H149.848V20.912C149.848 22.96 151.08 24.208 152.92 24.208C154.056 24.208 154.872 23.792 155.4 22.976V24H157.128V17.216C158.184 17.04 158.568 16.4 158.568 15.136V14.864H157.112V15.136C157.112 15.744 157.016 16 156.424 16H155.4V20.288ZM162.925 24.208C164.477 24.208 165.837 23.408 166.525 22.128L165.037 21.28C164.653 22.032 163.853 22.512 162.909 22.512C162.205 22.512 161.613 22.272 161.133 21.792C160.669 21.312 160.429 20.72 160.429 20C160.429 19.28 160.669 18.688 161.133 18.208C161.613 17.728 162.205 17.488 162.909 17.488C163.869 17.488 164.637 17.952 165.005 18.72L166.493 17.856C165.853 16.592 164.477 15.792 162.925 15.792C161.725 15.792 160.717 16.192 159.901 17.008C159.101 17.808 158.701 18.8 158.701 20C158.701 21.184 159.101 22.176 159.901 22.992C160.717 23.808 161.725 24.208 162.925 24.208ZM176.285 16H174.301V13.76L172.573 14.272V16H171.101V17.664H172.573V21.504C172.573 23.6 173.645 24.32 176.285 24V22.448C174.973 22.512 174.301 22.528 174.301 21.504V17.664H176.285V16ZM183.322 20.288C183.322 21.84 182.506 22.592 181.29 22.592C180.186 22.592 179.498 21.936 179.498 20.736V16H177.77V20.912C177.77 22.96 179.002 24.208 180.842 24.208C181.978 24.208 182.794 23.792 183.322 22.976V24H185.05V16H183.322V20.288ZM190.415 21.808L188.031 16H186.143L189.535 23.856L189.455 24.016C189.023 25.12 188.414 25.648 187.327 25.584V27.2C189.167 27.312 190.463 26.32 191.231 24.256L194.303 16H192.463L190.415 21.808ZM199.943 14.992H201.575L199.991 12.912H198.311L196.743 14.992H198.375L199.159 13.888L199.943 14.992ZM203.111 20.736C203.159 20.432 203.175 20.192 203.175 20.016C203.175 18.848 202.791 17.84 202.039 17.024C201.287 16.208 200.327 15.792 199.159 15.792C197.927 15.792 196.903 16.192 196.119 17.008C195.335 17.808 194.935 18.8 194.935 20C194.935 21.216 195.335 22.224 196.135 23.024C196.935 23.808 197.991 24.208 199.287 24.208C200.839 24.208 202.007 23.632 202.791 22.464L201.367 21.632C200.903 22.288 200.215 22.624 199.303 22.624C197.975 22.624 196.999 21.952 196.743 20.736H203.111ZM196.727 19.328C196.967 18.112 197.863 17.36 199.143 17.36C200.279 17.36 201.191 18.032 201.431 19.328H196.727ZM200.807 13.472H202.343L203.927 11.456H201.991L200.807 13.472ZM208.904 15.792C207.768 15.792 206.952 16.208 206.424 17.024V16H204.696V24H206.424V19.712C206.424 18.16 207.24 17.408 208.456 17.408C209.56 17.408 210.248 18.064 210.248 19.264V24H211.976V19.088C211.976 17.04 210.744 15.792 208.904 15.792Z" fill="#141414"/>
<path d="M93.656 50.182C94.552 50.182 95.378 49.972 96.134 49.538C96.89 49.104 97.478 48.516 97.884 47.788L96.75 47.144C96.19 48.208 95 48.908 93.656 48.908C92.522 48.908 91.598 48.544 90.884 47.816C90.17 47.088 89.82 46.178 89.82 45.1C89.82 44.008 90.17 43.098 90.884 42.37C91.598 41.642 92.522 41.278 93.656 41.278C95 41.278 96.19 41.978 96.75 43.056L97.884 42.398C97.044 40.942 95.448 40.018 93.656 40.018C92.172 40.018 90.94 40.508 89.974 41.488C89.008 42.468 88.532 43.672 88.532 45.1C88.532 46.528 89.008 47.732 89.974 48.712C90.94 49.692 92.172 50.182 93.656 50.182ZM102.76 42.818C101.738 42.818 100.982 43.21 100.492 44.008V40.2H99.2736V50H100.492V46.29C100.492 44.722 101.304 43.98 102.522 43.98C103.6 43.98 104.258 44.638 104.258 45.772V50H105.476V45.702C105.476 43.924 104.398 42.818 102.76 42.818ZM110.746 40.2L109.626 42.048H110.802L112.216 40.2H110.746ZM112.006 46.71C112.006 48.278 111.194 49.02 109.976 49.02C108.898 49.02 108.24 48.362 108.24 47.228V43H107.022V47.298C107.022 49.076 108.1 50.182 109.738 50.182C110.76 50.182 111.516 49.79 112.006 48.992V50H113.224V43H112.006V46.71ZM118.564 42.818C117.542 42.818 116.786 43.21 116.296 44.008V43H115.078V50H116.296V46.29C116.296 44.722 117.108 43.98 118.326 43.98C119.404 43.98 120.062 44.638 120.062 45.772V50H121.28V45.702C121.28 43.924 120.202 42.818 118.564 42.818ZM128.791 44.204C128.189 43.28 127.307 42.818 126.159 42.818C125.165 42.818 124.311 43.168 123.625 43.882C122.939 44.582 122.589 45.436 122.589 46.458C122.589 47.48 122.939 48.334 123.625 49.048C124.311 49.762 125.165 50.112 126.159 50.112C127.293 50.112 128.175 49.65 128.791 48.712V49.706C128.791 51.036 127.909 51.848 126.453 51.848C125.319 51.848 124.549 51.456 124.171 50.672L123.107 51.274C123.681 52.38 124.857 52.982 126.425 52.982C127.405 52.982 128.245 52.688 128.945 52.114C129.645 51.54 129.995 50.742 129.995 49.706V43H128.791V44.204ZM128.791 46.458C128.791 47.172 128.553 47.76 128.077 48.236C127.601 48.712 127.013 48.95 126.299 48.95C125.585 48.95 124.997 48.712 124.521 48.236C124.045 47.76 123.807 47.172 123.807 46.458C123.807 45.758 124.045 45.17 124.521 44.694C124.997 44.218 125.585 43.98 126.299 43.98C127.013 43.98 127.601 44.218 128.077 44.694C128.553 45.17 128.791 45.758 128.791 46.458ZM139.148 43H137.286V41.04L136.068 41.404V43H134.682V44.176H136.068V47.97C136.068 49.706 137.02 50.28 139.148 50V48.908C137.902 48.964 137.286 49.048 137.286 47.97V44.176H139.148V43ZM144.761 42.048H146.063L144.579 40.158H143.235L141.751 42.048H143.053L143.907 40.914L144.761 42.048ZM141.303 43.882C140.589 44.596 140.239 45.464 140.239 46.5C140.239 47.536 140.589 48.404 141.303 49.118C142.017 49.832 142.899 50.182 143.921 50.182C144.943 50.182 145.825 49.832 146.539 49.118C147.253 48.404 147.617 47.536 147.617 46.5C147.617 45.464 147.253 44.596 146.539 43.882C145.825 43.168 144.943 42.818 143.921 42.818C142.899 42.818 142.017 43.168 141.303 43.882ZM143.921 48.992C143.235 48.992 142.647 48.754 142.171 48.278C141.695 47.802 141.457 47.214 141.457 46.5C141.457 45.786 141.695 45.198 142.171 44.722C142.647 44.246 143.235 44.008 143.921 44.008C144.621 44.008 145.209 44.246 145.685 44.722C146.161 45.198 146.399 45.786 146.399 46.5C146.399 47.214 146.161 47.802 145.685 48.278C145.209 48.754 144.621 48.992 143.921 48.992ZM149.669 42.132C150.117 42.132 150.481 41.768 150.481 41.32C150.481 40.872 150.117 40.494 149.669 40.494C149.207 40.494 148.843 40.872 148.843 41.32C148.843 41.768 149.207 42.132 149.669 42.132ZM150.271 50V43H149.053V50H150.271ZM156.847 50V39.78H155.629V50H156.847ZM163.535 46.71C163.535 48.278 162.723 49.02 161.505 49.02C160.427 49.02 159.769 48.362 159.769 47.228V43H158.551V47.298C158.551 49.076 159.629 50.182 161.267 50.182C162.289 50.182 163.045 49.79 163.535 48.992V50H164.753V43H163.535V46.71ZM170.738 42.048H172.04L170.556 40.158H169.212L167.728 42.048H169.03L169.884 40.914L170.738 42.048ZM167.28 43.882C166.566 44.596 166.216 45.464 166.216 46.5C166.216 47.536 166.566 48.404 167.28 49.118C167.994 49.832 168.876 50.182 169.898 50.182C170.92 50.182 171.802 49.832 172.516 49.118C173.23 48.404 173.594 47.536 173.594 46.5C173.594 45.464 173.23 44.596 172.516 43.882C171.802 43.168 170.92 42.818 169.898 42.818C168.876 42.818 167.994 43.168 167.28 43.882ZM169.898 48.992C169.212 48.992 168.624 48.754 168.148 48.278C167.672 47.802 167.434 47.214 167.434 46.5C167.434 45.786 167.672 45.198 168.148 44.722C168.624 44.246 169.212 44.008 169.898 44.008C170.598 44.008 171.186 44.246 171.662 44.722C172.138 45.198 172.376 45.786 172.376 46.5C172.376 47.214 172.138 47.802 171.662 48.278C171.186 48.754 170.598 48.992 169.898 48.992ZM178.515 42.818C177.493 42.818 176.737 43.21 176.247 44.008V43H175.029V50H176.247V46.29C176.247 44.722 177.059 43.98 178.277 43.98C179.355 43.98 180.013 44.638 180.013 45.772V50H181.231V45.702C181.231 43.924 180.153 42.818 178.515 42.818ZM189.918 42.818C188.896 42.818 188.14 43.21 187.65 44.008V40.2H186.432V50H187.65V46.29C187.65 44.722 188.462 43.98 189.68 43.98C190.758 43.98 191.416 44.638 191.416 45.772V50H192.634V45.702C192.634 43.924 191.556 42.818 189.918 42.818ZM198.394 42.048H199.612L198.226 40.284H196.98L195.594 42.048H196.812L197.61 40.984L198.394 42.048ZM195.006 43.882C194.292 44.596 193.942 45.464 193.942 46.5C193.942 47.536 194.292 48.404 195.006 49.118C195.72 49.832 196.602 50.182 197.624 50.182C198.646 50.182 199.528 49.832 200.242 49.118C200.956 48.404 201.32 47.536 201.32 46.5C201.32 45.464 200.956 44.596 200.242 43.882C199.528 43.168 198.646 42.818 197.624 42.818C196.602 42.818 195.72 43.168 195.006 43.882ZM197.624 48.992C196.938 48.992 196.35 48.754 195.874 48.278C195.398 47.802 195.16 47.214 195.16 46.5C195.16 45.786 195.398 45.198 195.874 44.722C196.35 44.246 196.938 44.008 197.624 44.008C198.324 44.008 198.912 44.246 199.388 44.722C199.864 45.198 200.102 45.786 200.102 46.5C200.102 47.214 199.864 47.802 199.388 48.278C198.912 48.754 198.324 48.992 197.624 48.992ZM196.616 39.906C196.616 39.066 196.924 39.08 197.554 39.598C198.534 40.284 199.556 40.046 199.556 38.324H198.604C198.604 39.15 198.31 39.136 197.666 38.618C196.7 37.932 195.664 38.156 195.664 39.906H196.616ZM210.064 43H208.202V41.04L206.984 41.404V43H205.598V44.176H206.984V47.97C206.984 49.706 207.936 50.28 210.064 50V48.908C208.818 48.964 208.202 49.048 208.202 47.97V44.176H210.064V43ZM212.765 43H211.547V50H212.765V46.29C212.765 45.52 212.975 44.974 213.409 44.624C213.843 44.274 214.347 44.12 214.949 44.148V42.874C213.899 42.874 213.171 43.308 212.765 44.176V43ZM219.431 52.828C219.879 52.828 220.243 52.464 220.243 52.016C220.243 51.568 219.879 51.19 219.431 51.19C218.969 51.19 218.605 51.568 218.605 52.016C218.605 52.464 218.969 52.828 219.431 52.828ZM222.049 49.118C222.763 48.404 223.127 47.536 223.127 46.5C223.127 45.464 222.763 44.596 222.049 43.882C222.021 43.868 222.007 43.854 221.993 43.826C222.665 43.602 222.903 43.042 222.903 42.132V41.964H221.825V42.132C221.825 42.748 221.727 43 221.111 43H220.635C220.257 42.874 219.851 42.818 219.431 42.818C218.409 42.818 217.527 43.168 216.813 43.882C216.099 44.596 215.749 45.464 215.749 46.5C215.749 47.536 216.099 48.404 216.813 49.118C217.527 49.832 218.409 50.182 219.431 50.182C220.453 50.182 221.335 49.832 222.049 49.118ZM219.431 48.992C218.745 48.992 218.157 48.754 217.681 48.278C217.205 47.802 216.967 47.214 216.967 46.5C216.967 45.786 217.205 45.198 217.681 44.722C218.157 44.246 218.745 44.008 219.431 44.008C220.131 44.008 220.719 44.246 221.195 44.722C221.671 45.198 221.909 45.786 221.909 46.5C221.909 47.214 221.671 47.802 221.195 48.278C220.719 48.754 220.131 48.992 219.431 48.992ZM233.971 50V48.74H229.533L232.039 46.248C233.201 45.086 233.789 44.008 233.789 43.014C233.789 42.104 233.481 41.376 232.879 40.83C232.277 40.284 231.563 40.018 230.737 40.018C229.407 40.018 228.259 40.676 227.643 41.95L228.735 42.594C229.155 41.712 229.827 41.278 230.751 41.278C231.717 41.278 232.487 41.922 232.487 43.028C232.487 43.686 232.025 44.484 231.101 45.408L227.643 48.936V50H233.971ZM240.911 46.92V44.148H239.609V46.92H236.011L239.525 40.2H238.125L234.611 46.92V48.138H239.609V50H240.911V48.138H242.101V46.92H240.911ZM249.256 38.8H248.528L242.928 51.4H243.656L249.256 38.8ZM250.045 41.432H254.777L251.235 50H252.593L256.163 41.362V40.2H250.045V41.432Z" fill="#616161"/>
<defs>
<linearGradient id="paint0_linear_237_28933" x1="64" y1="6.35783e-05" x2="-1.40689" y2="1.47172" gradientUnits="userSpaceOnUse">
<stop stop-color="#00A0FB"/>
<stop offset="1" stop-color="#F0D905"/>
</linearGradient>
</defs>
</svg>
