<svg width="402" height="64" viewBox="0 0 402 64" fill="none" xmlns="http://www.w3.org/2000/svg">
<rect x="0.7" y="0.7" width="62.6" height="62.6" rx="31.3" stroke="url(#paint0_linear_237_28937)" stroke-width="1.4"/>
<path d="M47.4377 32.0012L48.9293 28.1106C49.0929 27.6814 48.9654 27.1948 48.6063 26.9037L45.3723 24.2816L44.7179 20.1658C44.6456 19.711 44.2886 19.3562 43.8339 19.2839L39.7181 18.6295L37.0981 15.3933C36.8091 15.0342 36.3119 14.9067 35.8933 15.0703L32.0006 16.5641L28.11 15.0725C27.6786 14.9067 27.1963 15.0385 26.9052 15.3955L24.2831 18.6316L20.1673 19.2861C19.9462 19.3217 19.7421 19.426 19.5837 19.5843C19.4254 19.7427 19.3211 19.9468 19.2855 20.1679L18.631 24.2837L15.3949 26.9058C15.0379 27.1948 14.9083 27.6814 15.0719 28.1106L16.5635 32.0012L15.0719 35.8918C14.9061 36.321 15.0379 36.8076 15.3949 37.0966L18.631 39.7165L19.2855 43.8324C19.3577 44.2871 19.7126 44.6441 20.1673 44.7163L24.2831 45.3708L26.9052 48.6048C27.046 48.7799 27.2388 48.9056 27.4558 48.9636C27.6729 49.0217 27.9027 49.0092 28.1121 48.9278L32.0006 47.4383L35.8912 48.9299C36.0127 48.9763 36.1416 49 36.2716 49C36.5839 49 36.892 48.8619 37.0981 48.6048L39.7181 45.3708L43.8339 44.7163C44.0557 44.681 44.2606 44.5766 44.4193 44.4178C44.5781 44.259 44.6826 44.0541 44.7179 43.8324L45.3723 39.7165L48.6063 37.0966C48.9654 36.8055 49.0929 36.321 48.9293 35.8918L47.4377 32.0012Z" fill="#007745"/>
<path d="M28.8133 29.8764C27.056 29.8764 25.626 28.4463 25.626 26.6891C25.626 24.9318 27.056 23.5018 28.8133 23.5018C30.5705 23.5018 32.0005 24.9318 32.0005 26.6891C32.0005 28.4463 30.5705 29.8764 28.8133 29.8764ZM28.8133 25.6266C28.2268 25.6266 27.7508 26.1026 27.7508 26.6891C27.7508 27.2755 28.2268 27.7515 28.8133 27.7515C29.3997 27.7515 29.8757 27.2755 29.8757 26.6891C29.8757 26.1026 29.3997 25.6266 28.8133 25.6266ZM35.1878 40.5006C33.4306 40.5006 32.0005 39.0706 32.0005 37.3133C32.0005 35.5561 33.4306 34.1261 35.1878 34.1261C36.9451 34.1261 38.3751 35.5561 38.3751 37.3133C38.3751 39.0706 36.9451 40.5006 35.1878 40.5006ZM35.1878 36.2509C34.6035 36.2509 34.1254 36.729 34.1254 37.3133C34.1254 37.8977 34.6035 38.3758 35.1878 38.3758C35.7722 38.3758 36.2503 37.8977 36.2503 37.3133C36.2503 36.729 35.7722 36.2509 35.1878 36.2509ZM26.6884 40.5006C26.4738 40.5006 26.2592 40.4369 26.0722 40.303C25.5941 39.9609 25.4836 39.298 25.8257 38.8199L36.45 23.9459C36.7921 23.4678 37.455 23.3573 37.9331 23.6994C38.4112 24.0394 38.5196 24.7045 38.1796 25.1804L27.5553 40.0544C27.345 40.3455 27.0199 40.5006 26.6884 40.5006Z" fill="white"/>
<path d="M94.416 18.208V19.856H98.16C97.824 21.408 96.528 22.416 94.544 22.416C93.312 22.416 92.304 22.032 91.536 21.28C90.784 20.528 90.4 19.568 90.4 18.416C90.4 17.264 90.784 16.304 91.536 15.536C92.288 14.768 93.264 14.384 94.432 14.384C95.888 14.384 97.136 15.088 97.728 16.16L99.312 15.248C98.352 13.632 96.528 12.592 94.432 12.592C92.768 12.592 91.376 13.152 90.24 14.288C89.12 15.408 88.56 16.784 88.56 18.4C88.56 20.032 89.12 21.408 90.24 22.528C91.376 23.648 92.8 24.208 94.528 24.208C96.16 24.208 97.488 23.728 98.496 22.752C99.504 21.776 100.016 20.512 100.016 18.976V18.208H94.416ZM103.202 14.752C103.634 14.304 103.634 13.664 103.218 13.232C102.786 12.8 102.114 12.8 101.682 13.232C101.266 13.664 101.266 14.304 101.682 14.752C102.13 15.168 102.77 15.168 103.202 14.752ZM103.314 24V16H101.586V24H103.314ZM110.105 12.8L108.825 14.96H110.489L112.185 12.8H110.105ZM111.657 17.136C111.001 16.24 110.073 15.792 108.857 15.792C107.753 15.792 106.825 16.192 106.041 17.008C105.257 17.824 104.873 18.816 104.873 20C104.873 21.168 105.257 22.176 106.041 22.992C106.825 23.808 107.753 24.208 108.857 24.208C110.073 24.208 111.001 23.76 111.657 22.848V24H113.385V16H111.657V17.136ZM107.321 21.84C106.841 21.344 106.601 20.736 106.601 20C106.601 19.264 106.841 18.656 107.321 18.176C107.801 17.68 108.409 17.44 109.129 17.44C109.849 17.44 110.457 17.68 110.937 18.176C111.417 18.656 111.657 19.264 111.657 20C111.657 20.736 111.417 21.344 110.937 21.84C110.457 22.32 109.849 22.56 109.129 22.56C108.409 22.56 107.801 22.32 107.321 21.84ZM123.175 24.208C124.727 24.208 126.087 23.408 126.775 22.128L125.287 21.28C124.903 22.032 124.103 22.512 123.159 22.512C122.455 22.512 121.863 22.272 121.383 21.792C120.919 21.312 120.679 20.72 120.679 20C120.679 19.28 120.919 18.688 121.383 18.208C121.863 17.728 122.455 17.488 123.159 17.488C124.119 17.488 124.887 17.952 125.255 18.72L126.743 17.856C126.103 16.592 124.727 15.792 123.175 15.792C121.975 15.792 120.967 16.192 120.151 17.008C119.351 17.808 118.951 18.8 118.951 20C118.951 21.184 119.351 22.176 120.151 22.992C120.967 23.808 121.975 24.208 123.175 24.208ZM133.495 15.04C133.447 14.656 133.559 14.576 133.751 14.48C134.071 14.304 134.423 13.936 134.423 13.312C134.423 12.48 133.783 12.016 132.919 12.016C132.071 12.016 131.495 12.4 131.159 13.184L132.215 13.632C132.343 13.232 132.647 13.12 132.919 13.12C133.159 13.12 133.239 13.2 133.239 13.328C133.239 13.552 133.079 13.632 132.999 13.68C133.015 13.664 132.807 13.792 132.807 13.792C132.407 14.112 132.311 14.288 132.311 15.04H133.495ZM134.407 17.136C133.751 16.24 132.823 15.792 131.607 15.792C130.503 15.792 129.575 16.192 128.791 17.008C128.007 17.824 127.623 18.816 127.623 20C127.623 21.168 128.007 22.176 128.791 22.992C129.575 23.808 130.503 24.208 131.607 24.208C132.823 24.208 133.751 23.76 134.407 22.848V24H136.135V16H134.407V17.136ZM130.071 21.84C129.591 21.344 129.351 20.736 129.351 20C129.351 19.264 129.591 18.656 130.071 18.176C130.551 17.68 131.159 17.44 131.879 17.44C132.599 17.44 133.207 17.68 133.687 18.176C134.167 18.656 134.407 19.264 134.407 20C134.407 20.736 134.167 21.344 133.687 21.84C133.207 22.32 132.599 22.56 131.879 22.56C131.159 22.56 130.551 22.32 130.071 21.84ZM146.677 15.792C145.461 15.792 144.533 16.24 143.877 17.152V16H142.149V27.2H143.877V22.864C144.533 23.76 145.461 24.208 146.677 24.208C147.781 24.208 148.709 23.808 149.493 22.992C150.277 22.176 150.661 21.184 150.661 20C150.661 18.832 150.277 17.84 149.493 17.024C148.709 16.208 147.781 15.792 146.677 15.792ZM144.597 21.84C144.117 21.344 143.877 20.736 143.877 20C143.877 19.264 144.117 18.656 144.597 18.176C145.077 17.68 145.685 17.44 146.405 17.44C147.125 17.44 147.733 17.68 148.213 18.176C148.693 18.656 148.933 19.264 148.933 20C148.933 20.736 148.693 21.344 148.213 21.84C147.733 22.32 147.125 22.56 146.405 22.56C145.685 22.56 145.077 22.32 144.597 21.84ZM156.435 15.792C155.299 15.792 154.483 16.208 153.955 17.024V12.8H152.227V24H153.955V19.712C153.955 18.16 154.771 17.408 155.987 17.408C157.091 17.408 157.779 18.064 157.779 19.264V24H159.507V19.088C159.507 17.04 158.275 15.792 156.435 15.792ZM166.791 15.04C166.743 14.656 166.855 14.576 167.047 14.48C167.367 14.304 167.719 13.936 167.719 13.312C167.719 12.48 167.079 12.016 166.215 12.016C165.367 12.016 164.791 12.4 164.455 13.184L165.511 13.632C165.639 13.232 165.943 13.12 166.215 13.12C166.455 13.12 166.535 13.2 166.535 13.328C166.535 13.552 166.375 13.632 166.295 13.68C166.311 13.664 166.103 13.792 166.103 13.792C165.703 14.112 165.607 14.288 165.607 15.04H166.791ZM167.703 17.136C167.047 16.24 166.119 15.792 164.903 15.792C163.799 15.792 162.871 16.192 162.087 17.008C161.303 17.824 160.919 18.816 160.919 20C160.919 21.168 161.303 22.176 162.087 22.992C162.871 23.808 163.799 24.208 164.903 24.208C166.119 24.208 167.047 23.76 167.703 22.848V24H169.431V16H167.703V17.136ZM163.367 21.84C162.887 21.344 162.647 20.736 162.647 20C162.647 19.264 162.887 18.656 163.367 18.176C163.847 17.68 164.455 17.44 165.175 17.44C165.895 17.44 166.503 17.68 166.983 18.176C167.463 18.656 167.703 19.264 167.703 20C167.703 20.736 167.463 21.344 166.983 21.84C166.503 22.32 165.895 22.56 165.175 22.56C164.455 22.56 163.847 22.32 163.367 21.84ZM173.062 14.752C173.494 14.304 173.494 13.664 173.078 13.232C172.646 12.8 171.974 12.8 171.542 13.232C171.126 13.664 171.126 14.304 171.542 14.752C171.99 15.168 172.63 15.168 173.062 14.752ZM173.174 24V16H171.446V24H173.174ZM182.956 24.208C184.508 24.208 185.868 23.408 186.556 22.128L185.068 21.28C184.684 22.032 183.884 22.512 182.94 22.512C182.236 22.512 181.644 22.272 181.164 21.792C180.7 21.312 180.46 20.72 180.46 20C180.46 19.28 180.7 18.688 181.164 18.208C181.644 17.728 182.236 17.488 182.94 17.488C183.9 17.488 184.668 17.952 185.036 18.72L186.524 17.856C185.884 16.592 184.508 15.792 182.956 15.792C181.756 15.792 180.748 16.192 179.932 17.008C179.132 17.808 178.732 18.8 178.732 20C178.732 21.184 179.132 22.176 179.932 22.992C180.748 23.808 181.756 24.208 182.956 24.208ZM192.06 15.792C190.924 15.792 190.108 16.208 189.58 17.024V12.8H187.852V24H189.58V19.712C189.58 18.16 190.396 17.408 191.612 17.408C192.716 17.408 193.404 18.064 193.404 19.264V24H195.132V19.088C195.132 17.04 193.9 15.792 192.06 15.792ZM201.6 15.168C203.184 15.168 204.112 14.352 204.112 12.928H202.544C202.544 13.552 202.224 13.872 201.6 13.872C200.96 13.872 200.64 13.552 200.64 12.928H199.072C199.072 14.352 200 15.168 201.6 15.168ZM203.328 17.136C202.672 16.24 201.744 15.792 200.528 15.792C199.424 15.792 198.496 16.192 197.712 17.008C196.928 17.824 196.544 18.816 196.544 20C196.544 21.168 196.928 22.176 197.712 22.992C198.496 23.808 199.424 24.208 200.528 24.208C201.744 24.208 202.672 23.76 203.328 22.848V24H205.056V16H203.328V17.136ZM198.992 21.84C198.512 21.344 198.272 20.736 198.272 20C198.272 19.264 198.512 18.656 198.992 18.176C199.472 17.68 200.08 17.44 200.8 17.44C201.52 17.44 202.128 17.68 202.608 18.176C203.088 18.656 203.328 19.264 203.328 20C203.328 20.736 203.088 21.344 202.608 21.84C202.128 22.32 201.52 22.56 200.8 22.56C200.08 22.56 199.472 22.32 198.992 21.84ZM211.279 15.792C210.143 15.792 209.327 16.208 208.799 17.024V16H207.071V24H208.799V19.712C208.799 18.16 209.615 17.408 210.831 17.408C211.935 17.408 212.623 18.064 212.623 19.264V24H214.351V19.088C214.351 17.04 213.119 15.792 211.279 15.792ZM222.579 17.184C221.923 16.256 220.995 15.792 219.795 15.792C218.659 15.792 217.715 16.192 216.931 17.008C216.147 17.808 215.763 18.784 215.763 19.92C215.763 21.056 216.147 22.032 216.931 22.848C217.715 23.648 218.659 24.048 219.795 24.048C220.995 24.048 221.923 23.584 222.579 22.656V23.632C222.579 25.024 221.683 25.84 220.195 25.84C219.059 25.84 218.275 25.424 217.859 24.608L216.371 25.472C217.059 26.768 218.323 27.408 220.163 27.408C221.299 27.408 222.275 27.088 223.075 26.432C223.875 25.776 224.275 24.848 224.275 23.632V16H222.579V17.184ZM218.211 21.712C217.731 21.232 217.491 20.64 217.491 19.92C217.491 19.2 217.731 18.608 218.211 18.128C218.707 17.648 219.315 17.408 220.035 17.408C220.755 17.408 221.363 17.648 221.843 18.128C222.339 18.608 222.579 19.2 222.579 19.92C222.579 20.64 222.339 21.232 221.843 21.712C221.363 22.192 220.755 22.432 220.035 22.432C219.315 22.432 218.707 22.192 218.211 21.712Z" fill="#141414"/>
<path d="M93.656 50.182C94.552 50.182 95.378 49.972 96.134 49.538C96.89 49.104 97.478 48.516 97.884 47.788L96.75 47.144C96.19 48.208 95 48.908 93.656 48.908C92.522 48.908 91.598 48.544 90.884 47.816C90.17 47.088 89.82 46.178 89.82 45.1C89.82 44.008 90.17 43.098 90.884 42.37C91.598 41.642 92.522 41.278 93.656 41.278C95 41.278 96.19 41.978 96.75 43.056L97.884 42.398C97.044 40.942 95.448 40.018 93.656 40.018C92.172 40.018 90.94 40.508 89.974 41.488C89.008 42.468 88.532 43.672 88.532 45.1C88.532 46.528 89.008 47.732 89.974 48.712C90.94 49.692 92.172 50.182 93.656 50.182ZM102.76 42.818C101.738 42.818 100.982 43.21 100.492 44.008V40.2H99.2736V50H100.492V46.29C100.492 44.722 101.304 43.98 102.522 43.98C103.6 43.98 104.258 44.638 104.258 45.772V50H105.476V45.702C105.476 43.924 104.398 42.818 102.76 42.818ZM110.746 40.2L109.626 42.048H110.802L112.216 40.2H110.746ZM112.006 46.71C112.006 48.278 111.194 49.02 109.976 49.02C108.898 49.02 108.24 48.362 108.24 47.228V43H107.022V47.298C107.022 49.076 108.1 50.182 109.738 50.182C110.76 50.182 111.516 49.79 112.006 48.992V50H113.224V43H112.006V46.71ZM118.564 42.818C117.542 42.818 116.786 43.21 116.296 44.008V43H115.078V50H116.296V46.29C116.296 44.722 117.108 43.98 118.326 43.98C119.404 43.98 120.062 44.638 120.062 45.772V50H121.28V45.702C121.28 43.924 120.202 42.818 118.564 42.818ZM128.791 44.204C128.189 43.28 127.307 42.818 126.159 42.818C125.165 42.818 124.311 43.168 123.625 43.882C122.939 44.582 122.589 45.436 122.589 46.458C122.589 47.48 122.939 48.334 123.625 49.048C124.311 49.762 125.165 50.112 126.159 50.112C127.293 50.112 128.175 49.65 128.791 48.712V49.706C128.791 51.036 127.909 51.848 126.453 51.848C125.319 51.848 124.549 51.456 124.171 50.672L123.107 51.274C123.681 52.38 124.857 52.982 126.425 52.982C127.405 52.982 128.245 52.688 128.945 52.114C129.645 51.54 129.995 50.742 129.995 49.706V43H128.791V44.204ZM128.791 46.458C128.791 47.172 128.553 47.76 128.077 48.236C127.601 48.712 127.013 48.95 126.299 48.95C125.585 48.95 124.997 48.712 124.521 48.236C124.045 47.76 123.807 47.172 123.807 46.458C123.807 45.758 124.045 45.17 124.521 44.694C124.997 44.218 125.585 43.98 126.299 43.98C127.013 43.98 127.601 44.218 128.077 44.694C128.553 45.17 128.791 45.758 128.791 46.458ZM139.148 43H137.286V41.04L136.068 41.404V43H134.682V44.176H136.068V47.97C136.068 49.706 137.02 50.28 139.148 50V48.908C137.902 48.964 137.286 49.048 137.286 47.97V44.176H139.148V43ZM144.761 42.048H146.063L144.579 40.158H143.235L141.751 42.048H143.053L143.907 40.914L144.761 42.048ZM141.303 43.882C140.589 44.596 140.239 45.464 140.239 46.5C140.239 47.536 140.589 48.404 141.303 49.118C142.017 49.832 142.899 50.182 143.921 50.182C144.943 50.182 145.825 49.832 146.539 49.118C147.253 48.404 147.617 47.536 147.617 46.5C147.617 45.464 147.253 44.596 146.539 43.882C145.825 43.168 144.943 42.818 143.921 42.818C142.899 42.818 142.017 43.168 141.303 43.882ZM143.921 48.992C143.235 48.992 142.647 48.754 142.171 48.278C141.695 47.802 141.457 47.214 141.457 46.5C141.457 45.786 141.695 45.198 142.171 44.722C142.647 44.246 143.235 44.008 143.921 44.008C144.621 44.008 145.209 44.246 145.685 44.722C146.161 45.198 146.399 45.786 146.399 46.5C146.399 47.214 146.161 47.802 145.685 48.278C145.209 48.754 144.621 48.992 143.921 48.992ZM149.669 42.132C150.117 42.132 150.481 41.768 150.481 41.32C150.481 40.872 150.117 40.494 149.669 40.494C149.207 40.494 148.843 40.872 148.843 41.32C148.843 41.768 149.207 42.132 149.669 42.132ZM150.271 50V43H149.053V50H150.271ZM156.847 50V39.78H155.629V50H156.847ZM163.535 46.71C163.535 48.278 162.723 49.02 161.505 49.02C160.427 49.02 159.769 48.362 159.769 47.228V43H158.551V47.298C158.551 49.076 159.629 50.182 161.267 50.182C162.289 50.182 163.045 49.79 163.535 48.992V50H164.753V43H163.535V46.71ZM170.738 42.048H172.04L170.556 40.158H169.212L167.728 42.048H169.03L169.884 40.914L170.738 42.048ZM167.28 43.882C166.566 44.596 166.216 45.464 166.216 46.5C166.216 47.536 166.566 48.404 167.28 49.118C167.994 49.832 168.876 50.182 169.898 50.182C170.92 50.182 171.802 49.832 172.516 49.118C173.23 48.404 173.594 47.536 173.594 46.5C173.594 45.464 173.23 44.596 172.516 43.882C171.802 43.168 170.92 42.818 169.898 42.818C168.876 42.818 167.994 43.168 167.28 43.882ZM169.898 48.992C169.212 48.992 168.624 48.754 168.148 48.278C167.672 47.802 167.434 47.214 167.434 46.5C167.434 45.786 167.672 45.198 168.148 44.722C168.624 44.246 169.212 44.008 169.898 44.008C170.598 44.008 171.186 44.246 171.662 44.722C172.138 45.198 172.376 45.786 172.376 46.5C172.376 47.214 172.138 47.802 171.662 48.278C171.186 48.754 170.598 48.992 169.898 48.992ZM178.515 42.818C177.493 42.818 176.737 43.21 176.247 44.008V43H175.029V50H176.247V46.29C176.247 44.722 177.059 43.98 178.277 43.98C179.355 43.98 180.013 44.638 180.013 45.772V50H181.231V45.702C181.231 43.924 180.153 42.818 178.515 42.818ZM189.722 50.182C191.08 50.182 192.27 49.468 192.872 48.362L191.836 47.76C191.444 48.502 190.66 48.978 189.722 48.978C189.022 48.978 188.434 48.74 187.958 48.264C187.496 47.788 187.258 47.2 187.258 46.5C187.258 45.786 187.496 45.198 187.958 44.722C188.434 44.246 189.022 44.008 189.722 44.008C190.66 44.008 191.444 44.498 191.794 45.24L192.816 44.652C192.27 43.532 191.108 42.818 189.722 42.818C188.672 42.818 187.79 43.168 187.09 43.882C186.39 44.582 186.04 45.45 186.04 46.5C186.04 47.55 186.39 48.418 187.09 49.132C187.79 49.832 188.672 50.182 189.722 50.182ZM196.72 42.006H197.896L199.31 40.158H197.84L196.72 42.006ZM199.996 49.118C199.282 49.832 198.4 50.182 197.378 50.182C196.356 50.182 195.474 49.832 194.76 49.118C194.046 48.404 193.696 47.536 193.696 46.5C193.696 45.464 194.046 44.596 194.76 43.882C195.474 43.168 196.356 42.818 197.378 42.818C198.4 42.818 199.282 43.168 199.996 43.882C200.71 44.596 201.074 45.464 201.074 46.5C201.074 47.536 200.71 48.404 199.996 49.118ZM197.378 48.992C198.078 48.992 198.666 48.754 199.142 48.278C199.618 47.802 199.856 47.214 199.856 46.5C199.856 45.786 199.618 45.198 199.142 44.722C198.666 44.246 198.078 44.008 197.378 44.008C196.692 44.008 196.104 44.246 195.628 44.722C195.152 45.198 194.914 45.786 194.914 46.5C194.914 47.214 195.152 47.802 195.628 48.278C196.104 48.754 196.692 48.992 197.378 48.992ZM211.82 44.204C211.218 43.28 210.336 42.818 209.188 42.818C208.194 42.818 207.34 43.168 206.654 43.882C205.968 44.582 205.618 45.436 205.618 46.458C205.618 47.48 205.968 48.334 206.654 49.048C207.34 49.762 208.194 50.112 209.188 50.112C210.322 50.112 211.204 49.65 211.82 48.712V49.706C211.82 51.036 210.938 51.848 209.482 51.848C208.348 51.848 207.578 51.456 207.2 50.672L206.136 51.274C206.71 52.38 207.886 52.982 209.454 52.982C210.434 52.982 211.274 52.688 211.974 52.114C212.674 51.54 213.024 50.742 213.024 49.706V43H211.82V44.204ZM211.82 46.458C211.82 47.172 211.582 47.76 211.106 48.236C210.63 48.712 210.042 48.95 209.328 48.95C208.614 48.95 208.026 48.712 207.55 48.236C207.074 47.76 206.836 47.172 206.836 46.458C206.836 45.758 207.074 45.17 207.55 44.694C208.026 44.218 208.614 43.98 209.328 43.98C210.042 43.98 210.63 44.218 211.106 44.694C211.582 45.17 211.82 45.758 211.82 46.458ZM215.485 42.132C215.933 42.132 216.297 41.768 216.297 41.32C216.297 40.872 215.933 40.494 215.485 40.494C215.023 40.494 214.659 40.872 214.659 41.32C214.659 41.768 215.023 42.132 215.485 42.132ZM216.087 50V43H214.869V50H216.087ZM222.131 40.2L221.011 42.048H222.187L223.601 40.2H222.131ZM223.741 44.204C223.139 43.28 222.257 42.818 221.095 42.818C220.115 42.818 219.275 43.182 218.589 43.896C217.903 44.61 217.553 45.478 217.553 46.5C217.553 47.522 217.903 48.404 218.589 49.118C219.275 49.832 220.115 50.182 221.095 50.182C222.257 50.182 223.139 49.72 223.741 48.796V50H224.959V43H223.741V44.204ZM221.249 49.006C220.549 49.006 219.961 48.768 219.485 48.292C219.009 47.802 218.771 47.214 218.771 46.5C218.771 45.786 219.009 45.198 219.485 44.722C219.961 44.232 220.549 43.994 221.249 43.994C221.963 43.994 222.551 44.232 223.027 44.722C223.503 45.198 223.741 45.786 223.741 46.5C223.741 47.214 223.503 47.802 223.027 48.292C222.551 48.768 221.963 49.006 221.249 49.006ZM234.113 43H232.251V41.04L231.033 41.404V43H229.647V44.176H231.033V47.97C231.033 49.706 231.985 50.28 234.113 50V48.908C232.867 48.964 232.251 49.048 232.251 47.97V44.176H234.113V43ZM239.656 42.048H240.874L239.488 40.284H238.242L236.856 42.048H238.074L238.872 40.984L239.656 42.048ZM236.268 43.882C235.554 44.596 235.204 45.464 235.204 46.5C235.204 47.536 235.554 48.404 236.268 49.118C236.982 49.832 237.864 50.182 238.886 50.182C239.908 50.182 240.79 49.832 241.504 49.118C242.218 48.404 242.582 47.536 242.582 46.5C242.582 45.464 242.218 44.596 241.504 43.882C240.79 43.168 239.908 42.818 238.886 42.818C237.864 42.818 236.982 43.168 236.268 43.882ZM238.886 48.992C238.2 48.992 237.612 48.754 237.136 48.278C236.66 47.802 236.422 47.214 236.422 46.5C236.422 45.786 236.66 45.198 237.136 44.722C237.612 44.246 238.2 44.008 238.886 44.008C239.586 44.008 240.174 44.246 240.65 44.722C241.126 45.198 241.364 45.786 241.364 46.5C241.364 47.214 241.126 47.802 240.65 48.278C240.174 48.754 239.586 48.992 238.886 48.992ZM240.272 40.76H241.364L242.694 39.038H241.308L240.272 40.76ZM247.826 43H245.964V41.04L244.746 41.404V43H243.36V44.176H244.746V47.97C244.746 49.706 245.698 50.28 247.826 50V48.908C246.58 48.964 245.964 49.048 245.964 47.97V44.176H247.826V43ZM256.295 42.818C255.273 42.818 254.517 43.21 254.027 44.008V43H252.809V50H254.027V46.29C254.027 44.722 254.839 43.98 256.057 43.98C257.135 43.98 257.793 44.638 257.793 45.772V50H259.011V45.702C259.011 43.924 257.933 42.818 256.295 42.818ZM264.197 42.818C263.175 42.818 262.419 43.21 261.929 44.008V40.2H260.711V50H261.929V46.29C261.929 44.722 262.741 43.98 263.959 43.98C265.037 43.98 265.695 44.638 265.695 45.772V50H266.913V45.702C266.913 43.924 265.835 42.818 264.197 42.818ZM273.317 42.09H274.535L273.149 40.326H271.903L270.517 42.09H271.735L272.533 41.026L273.317 42.09ZM274.409 44.204C273.807 43.28 272.925 42.818 271.763 42.818C270.783 42.818 269.943 43.182 269.257 43.896C268.571 44.61 268.221 45.478 268.221 46.5C268.221 47.522 268.571 48.404 269.257 49.118C269.943 49.832 270.783 50.182 271.763 50.182C272.925 50.182 273.807 49.72 274.409 48.796V50H275.627V43H274.409V44.204ZM271.917 49.006C271.217 49.006 270.629 48.768 270.153 48.292C269.677 47.802 269.439 47.214 269.439 46.5C269.439 45.786 269.677 45.198 270.153 44.722C270.629 44.232 271.217 43.994 271.917 43.994C272.631 43.994 273.219 44.232 273.695 44.722C274.171 45.198 274.409 45.786 274.409 46.5C274.409 47.214 274.171 47.802 273.695 48.292C273.219 48.768 272.631 49.006 271.917 49.006ZM273.933 40.802H275.025L276.355 39.08H274.969L273.933 40.802ZM281.281 43H279.419V41.04L278.201 41.404V43H276.815V44.176H278.201V47.97C278.201 49.706 279.153 50.28 281.281 50V48.908C280.035 48.964 279.419 49.048 279.419 47.97V44.176H281.281V43ZM289.554 50.182C290.912 50.182 292.102 49.468 292.704 48.362L291.668 47.76C291.276 48.502 290.492 48.978 289.554 48.978C288.854 48.978 288.266 48.74 287.79 48.264C287.328 47.788 287.09 47.2 287.09 46.5C287.09 45.786 287.328 45.198 287.79 44.722C288.266 44.246 288.854 44.008 289.554 44.008C290.492 44.008 291.276 44.498 291.626 45.24L292.648 44.652C292.102 43.532 290.94 42.818 289.554 42.818C288.504 42.818 287.622 43.168 286.922 43.882C286.222 44.582 285.872 45.45 285.872 46.5C285.872 47.55 286.222 48.418 286.922 49.132C287.622 49.832 288.504 50.182 289.554 50.182ZM297.406 42.818C296.384 42.818 295.628 43.21 295.138 44.008V40.2H293.92V50H295.138V46.29C295.138 44.722 295.95 43.98 297.168 43.98C298.246 43.98 298.904 44.638 298.904 45.772V50H300.122V45.702C300.122 43.924 299.044 42.818 297.406 42.818ZM307.73 49.118C308.444 48.404 308.808 47.536 308.808 46.5C308.808 45.464 308.444 44.596 307.73 43.882C307.016 43.168 306.134 42.818 305.112 42.818C304.09 42.818 303.208 43.168 302.494 43.882C301.78 44.596 301.43 45.464 301.43 46.5C301.43 47.536 301.78 48.404 302.494 49.118C303.208 49.832 304.09 50.182 305.112 50.182C306.134 50.182 307.016 49.832 307.73 49.118ZM305.112 48.992C304.426 48.992 303.838 48.754 303.362 48.278C302.886 47.802 302.648 47.214 302.648 46.5C302.648 45.786 302.886 45.198 303.362 44.722C303.838 44.246 304.426 44.008 305.112 44.008C305.812 44.008 306.4 44.246 306.876 44.722C307.352 45.198 307.59 45.786 307.59 46.5C307.59 47.214 307.352 47.802 306.876 48.278C306.4 48.754 305.812 48.992 305.112 48.992ZM316.208 46.388L319.554 43H317.986L314.962 46.094V40.2H313.744V50H314.962V46.682L318.154 50H319.666L316.208 46.388ZM324.285 42.818C323.263 42.818 322.507 43.21 322.017 44.008V40.2H320.799V50H322.017V46.29C322.017 44.722 322.829 43.98 324.047 43.98C325.125 43.98 325.783 44.638 325.783 45.772V50H327.001V45.702C327.001 43.924 325.923 42.818 324.285 42.818ZM332.887 40.2L331.767 42.048H332.943L334.357 40.2H332.887ZM334.497 44.204C333.895 43.28 333.013 42.818 331.851 42.818C330.871 42.818 330.031 43.182 329.345 43.896C328.659 44.61 328.309 45.478 328.309 46.5C328.309 47.522 328.659 48.404 329.345 49.118C330.031 49.832 330.871 50.182 331.851 50.182C333.013 50.182 333.895 49.72 334.497 48.796V50H335.715V43H334.497V44.204ZM332.005 49.006C331.305 49.006 330.717 48.768 330.241 48.292C329.765 47.802 329.527 47.214 329.527 46.5C329.527 45.786 329.765 45.198 330.241 44.722C330.717 44.232 331.305 43.994 332.005 43.994C332.719 43.994 333.307 44.232 333.783 44.722C334.259 45.198 334.497 45.786 334.497 46.5C334.497 47.214 334.259 47.802 333.783 48.292C333.307 48.768 332.719 49.006 332.005 49.006ZM340.851 50.182C342.209 50.182 343.399 49.468 344.001 48.362L342.965 47.76C342.573 48.502 341.789 48.978 340.851 48.978C340.151 48.978 339.563 48.74 339.087 48.264C338.625 47.788 338.387 47.2 338.387 46.5C338.387 45.786 338.625 45.198 339.087 44.722C339.563 44.246 340.151 44.008 340.851 44.008C341.789 44.008 342.573 44.498 342.923 45.24L343.945 44.652C343.399 43.532 342.237 42.818 340.851 42.818C339.801 42.818 338.919 43.168 338.219 43.882C337.519 44.582 337.169 45.45 337.169 46.5C337.169 47.55 337.519 48.418 338.219 49.132C338.919 49.832 339.801 50.182 340.851 50.182ZM348.703 42.818C347.681 42.818 346.925 43.21 346.435 44.008V40.2H345.217V50H346.435V46.29C346.435 44.722 347.247 43.98 348.465 43.98C349.543 43.98 350.201 44.638 350.201 45.772V50H351.419V45.702C351.419 43.924 350.341 42.818 348.703 42.818ZM360.105 42.818C359.083 42.818 358.327 43.21 357.837 44.008V40.2H356.619V50H357.837V46.29C357.837 44.722 358.649 43.98 359.867 43.98C360.945 43.98 361.603 44.638 361.603 45.772V50H362.821V45.702C362.821 43.924 361.743 42.818 360.105 42.818ZM368.316 40.2H366.846L368.26 42.048H369.436L368.316 40.2ZM370.318 44.204C369.716 43.28 368.834 42.818 367.672 42.818C366.692 42.818 365.852 43.182 365.166 43.896C364.48 44.61 364.13 45.478 364.13 46.5C364.13 47.522 364.48 48.404 365.166 49.118C365.852 49.832 366.692 50.182 367.672 50.182C368.834 50.182 369.716 49.72 370.318 48.796V50H371.536V43H370.318V44.204ZM367.826 49.006C367.126 49.006 366.538 48.768 366.062 48.292C365.586 47.802 365.348 47.214 365.348 46.5C365.348 45.786 365.586 45.198 366.062 44.722C366.538 44.232 367.126 43.994 367.826 43.994C368.54 43.994 369.128 44.232 369.604 44.722C370.08 45.198 370.318 45.786 370.318 46.5C370.318 47.214 370.08 47.802 369.604 48.292C369.128 48.768 368.54 49.006 367.826 49.006ZM376.867 42.818C375.845 42.818 375.089 43.21 374.599 44.008V43H373.381V50H374.599V46.29C374.599 44.722 375.411 43.98 376.629 43.98C377.707 43.98 378.365 44.638 378.365 45.772V50H379.583V45.702C379.583 43.924 378.505 42.818 376.867 42.818ZM387.093 44.204C386.491 43.28 385.609 42.818 384.461 42.818C383.467 42.818 382.613 43.168 381.927 43.882C381.241 44.582 380.891 45.436 380.891 46.458C380.891 47.48 381.241 48.334 381.927 49.048C382.613 49.762 383.467 50.112 384.461 50.112C385.595 50.112 386.477 49.65 387.093 48.712V49.706C387.093 51.036 386.211 51.848 384.755 51.848C383.621 51.848 382.851 51.456 382.473 50.672L381.409 51.274C381.983 52.38 383.159 52.982 384.727 52.982C385.707 52.982 386.547 52.688 387.247 52.114C387.947 51.54 388.297 50.742 388.297 49.706V43H387.093V44.204ZM387.093 46.458C387.093 47.172 386.855 47.76 386.379 48.236C385.903 48.712 385.315 48.95 384.601 48.95C383.887 48.95 383.299 48.712 382.823 48.236C382.347 47.76 382.109 47.172 382.109 46.458C382.109 45.758 382.347 45.17 382.823 44.694C383.299 44.218 383.887 43.98 384.601 43.98C385.315 43.98 385.903 44.218 386.379 44.694C386.855 45.17 387.093 45.758 387.093 46.458Z" fill="#616161"/>
<defs>
<linearGradient id="paint0_linear_237_28937" x1="64" y1="6.35783e-05" x2="-1.40689" y2="1.47172" gradientUnits="userSpaceOnUse">
<stop stop-color="#00A0FB"/>
<stop offset="1" stop-color="#F0D905"/>
</linearGradient>
</defs>
</svg>
