<svg width="402" height="64" viewBox="0 0 402 64" fill="none" xmlns="http://www.w3.org/2000/svg">
<rect x="0.7" y="0.7" width="62.6" height="62.6" rx="31.3" stroke="url(#paint0_linear_237_28938)" stroke-width="1.4"/>
<g clip-path="url(#clip0_237_28938)">
<path d="M18.4497 18.45L16.9997 17C16.358 21.4833 16.583 19.9 16.1664 22.8333L22.4164 22.4167L20.808 20.8083C23.3993 18.219 26.8082 16.6083 30.454 16.2507C34.0997 15.893 37.7566 16.8106 40.8017 18.8471C43.8467 20.8835 46.0914 23.9128 47.1532 27.4187C48.2151 30.9247 48.0284 34.6904 46.6251 38.0741C45.2217 41.4579 42.6884 44.2503 39.4569 45.9756C36.2254 47.701 32.4956 48.2524 28.9032 47.5359C25.3107 46.8195 22.0777 44.8796 19.7552 42.0467C17.4328 39.2138 16.1644 35.6632 16.1664 32H12.833C12.6706 37.0833 14.5341 42.0229 18.0137 45.7323C21.4933 49.4416 26.3039 51.6167 31.3872 51.7792C36.4705 51.9416 41.4102 50.078 45.1195 46.5985C48.8288 43.1189 51.0039 38.3083 51.1664 33.225C52.233 15.5417 30.8247 6.07499 18.4497 18.45Z" fill="#007745"/>
<path d="M22.5242 24.0833L20.1492 24.2333C18.195 27.2044 17.4296 30.8019 18.0052 34.3112C18.5807 37.8205 20.4551 40.985 23.256 43.1763C26.057 45.3675 29.5796 46.4251 33.1243 46.1392C36.669 45.8532 39.9765 44.2445 42.3899 41.6326C44.8033 39.0207 46.1462 35.5967 46.1517 32.0405C46.1573 28.4843 44.8251 25.056 42.4198 22.4366C40.0146 19.8172 36.7121 18.1982 33.1683 17.9012C29.6245 17.6042 26.0986 18.6508 23.2909 20.8333C23.1909 20.8333 23.2159 20.8333 23.5909 21.2416C23.8173 21.468 23.9738 21.7548 24.0415 22.0677C24.1093 22.3806 24.0855 22.7064 23.973 23.0061C23.8605 23.3058 23.664 23.5668 23.4071 23.7578C23.1502 23.9489 22.8437 24.0619 22.5242 24.0833ZM34.4992 35.05C34.2409 33.4833 32.4159 33.6666 31.4159 33.6666C30.0981 33.696 28.8192 33.219 27.8425 32.3338C26.8659 31.4486 26.2658 30.2226 26.1659 28.9083C26.1082 27.6865 26.5004 26.486 27.2683 25.5339C28.0361 24.5818 29.1263 23.9441 30.3326 23.7416C30.3326 21.85 30.2242 21.4083 30.8242 20.825C31.0573 20.5933 31.3536 20.4357 31.676 20.372C31.9984 20.3082 32.3324 20.3412 32.6361 20.4668C32.9398 20.5924 33.1996 20.8049 33.3828 21.0777C33.566 21.3505 33.6645 21.6714 33.6659 22V23.6666H36.1659C36.3848 23.6727 36.6003 23.7217 36.8002 23.8111C37.0001 23.9004 37.1805 24.0282 37.331 24.1872C37.4815 24.3462 37.5992 24.5333 37.6774 24.7378C37.7556 24.9424 37.7927 25.1603 37.7867 25.3791C37.7807 25.598 37.7316 25.8136 37.6423 26.0135C37.553 26.2134 37.4252 26.3937 37.2662 26.5442C37.1071 26.6947 36.92 26.8125 36.7155 26.8906C36.511 26.9688 36.2931 27.006 36.0742 27H31.1659C30.921 26.9964 30.6783 27.0469 30.4552 27.1477C30.232 27.2486 30.0338 27.3974 29.8746 27.5836C29.7155 27.7698 29.5994 27.9887 29.5345 28.2249C29.4696 28.4611 29.4576 28.7086 29.4992 28.95C29.7576 30.5166 31.5826 30.3333 32.5826 30.3333C33.9004 30.3039 35.1793 30.7809 36.1559 31.6661C37.1326 32.5513 37.7326 33.7773 37.8326 35.0916C37.8902 36.3134 37.498 37.514 36.7302 38.4661C35.9624 39.4182 34.8722 40.0558 33.6659 40.2583C33.6659 42.15 33.7742 42.5916 33.1742 43.175C32.9412 43.4067 32.6448 43.5643 32.3224 43.628C32.0001 43.6917 31.666 43.6587 31.3624 43.5332C31.0587 43.4076 30.7989 43.1951 30.6157 42.9223C30.4324 42.6495 30.3339 42.3286 30.3326 42V40.3333H27.8326C27.6137 40.3273 27.3981 40.2782 27.1982 40.1889C26.9983 40.0996 26.818 39.9718 26.6675 39.8127C26.517 39.6537 26.3993 39.4666 26.3211 39.2621C26.2429 39.0576 26.2057 38.8397 26.2117 38.6208C26.2177 38.4019 26.2668 38.1864 26.3561 37.9865C26.4455 37.7866 26.5733 37.6062 26.7323 37.4557C26.8913 37.3052 27.0784 37.1875 27.2829 37.1093C27.4874 37.0311 27.7054 36.994 27.9242 37H32.8326C33.0775 37.0035 33.3201 36.9531 33.5433 36.8522C33.7665 36.7514 33.9647 36.6025 34.1238 36.4164C34.2829 36.2302 34.3991 36.0112 34.464 35.7751C34.5288 35.5389 34.5409 35.2913 34.4992 35.05Z" fill="#007745"/>
</g>
<path d="M94.416 24.208C95.44 24.208 96.384 23.968 97.232 23.488C98.096 22.992 98.768 22.336 99.232 21.52L97.632 20.608C97.056 21.712 95.824 22.416 94.416 22.416C93.216 22.416 92.256 22.032 91.504 21.28C90.768 20.528 90.4 19.568 90.4 18.4C90.4 17.232 90.768 16.272 91.504 15.52C92.256 14.768 93.216 14.384 94.416 14.384C95.824 14.384 97.04 15.088 97.632 16.192L99.232 15.264C98.272 13.616 96.448 12.592 94.416 12.592C92.736 12.592 91.328 13.152 90.224 14.272C89.12 15.376 88.56 16.752 88.56 18.4C88.56 20.048 89.12 21.424 90.224 22.544C91.328 23.648 92.736 24.208 94.416 24.208ZM104.935 15.792C103.799 15.792 102.983 16.208 102.455 17.024V12.8H100.727V24H102.455V19.712C102.455 18.16 103.271 17.408 104.487 17.408C105.591 17.408 106.279 18.064 106.279 19.264V24H108.007V19.088C108.007 17.04 106.775 15.792 104.935 15.792ZM109.883 15.04H111.547L112.603 12.8H110.603L109.883 15.04ZM109.867 24V16H111.595V24H109.867ZM117.81 15.792C116.674 15.792 115.858 16.208 115.33 17.024V16H113.602V24H115.33V19.712C115.33 18.16 116.146 17.408 117.362 17.408C118.466 17.408 119.154 18.064 119.154 19.264V24H120.882V19.088C120.882 17.04 119.65 15.792 117.81 15.792ZM126.95 15.792C125.814 15.792 124.998 16.208 124.47 17.024V12.8H122.742V24H124.47V19.712C124.47 18.16 125.286 17.408 126.502 17.408C127.606 17.408 128.294 18.064 128.294 19.264V24H130.022V19.088C130.022 17.04 128.79 15.792 126.95 15.792ZM137.435 18.208C137.435 17.648 137.947 17.36 138.603 17.36C139.323 17.36 139.835 17.664 140.107 18.272L141.563 17.456C141.003 16.416 139.931 15.792 138.603 15.792C137.771 15.792 137.067 16.016 136.507 16.464C135.947 16.912 135.675 17.504 135.675 18.24C135.643 19.92 137.259 20.4 138.459 20.704C139.307 20.912 139.979 21.216 139.979 21.728C139.979 22.32 139.531 22.624 138.619 22.624C137.707 22.624 137.115 22.24 136.843 21.472L135.355 22.336C135.867 23.504 137.035 24.208 138.619 24.208C139.515 24.208 140.251 23.984 140.843 23.552C141.435 23.12 141.739 22.512 141.739 21.744C141.771 20.032 140.171 19.52 138.939 19.248C138.107 19.008 137.435 18.736 137.435 18.208ZM148.042 12.8L146.762 14.96H148.426L150.122 12.8H148.042ZM149.594 17.136C148.938 16.24 148.01 15.792 146.794 15.792C145.69 15.792 144.762 16.192 143.978 17.008C143.194 17.824 142.81 18.816 142.81 20C142.81 21.168 143.194 22.176 143.978 22.992C144.762 23.808 145.69 24.208 146.794 24.208C148.01 24.208 148.938 23.76 149.594 22.848V24H151.322V16H149.594V17.136ZM145.258 21.84C144.778 21.344 144.538 20.736 144.538 20C144.538 19.264 144.778 18.656 145.258 18.176C145.738 17.68 146.346 17.44 147.066 17.44C147.786 17.44 148.394 17.68 148.874 18.176C149.354 18.656 149.594 19.264 149.594 20C149.594 20.736 149.354 21.344 148.874 21.84C148.394 22.32 147.786 22.56 147.066 22.56C146.346 22.56 145.738 22.32 145.258 21.84ZM157.112 24.208C158.664 24.208 160.024 23.408 160.712 22.128L159.224 21.28C158.84 22.032 158.04 22.512 157.096 22.512C156.392 22.512 155.8 22.272 155.32 21.792C154.856 21.312 154.616 20.72 154.616 20C154.616 19.28 154.856 18.688 155.32 18.208C155.8 17.728 156.392 17.488 157.096 17.488C158.056 17.488 158.824 17.952 159.192 18.72L160.68 17.856C160.04 16.592 158.664 15.792 157.112 15.792C155.912 15.792 154.904 16.192 154.088 17.008C153.288 17.808 152.888 18.8 152.888 20C152.888 21.184 153.288 22.176 154.088 22.992C154.904 23.808 155.912 24.208 157.112 24.208ZM166.216 15.792C165.08 15.792 164.264 16.208 163.736 17.024V12.8H162.008V24H163.736V19.712C163.736 18.16 164.552 17.408 165.768 17.408C166.872 17.408 167.56 18.064 167.56 19.264V24H169.288V19.088C169.288 17.04 168.056 15.792 166.216 15.792ZM179.357 15.792C178.221 15.792 177.405 16.208 176.877 17.024V12.8H175.149V24H176.877V19.712C176.877 18.16 177.693 17.408 178.909 17.408C180.013 17.408 180.701 18.064 180.701 19.264V24H182.429V19.088C182.429 17.04 181.197 15.792 179.357 15.792ZM188.065 24.208C189.249 24.208 190.241 23.808 191.057 22.992C191.873 22.176 192.289 21.184 192.289 20C192.289 18.816 191.873 17.824 191.057 17.008C190.241 16.192 189.249 15.792 188.065 15.792C186.897 15.792 185.889 16.192 185.073 17.008C184.257 17.824 183.841 18.816 183.841 20C183.841 21.184 184.257 22.176 185.073 22.992C185.889 23.808 186.897 24.208 188.065 24.208ZM186.289 21.808C185.809 21.328 185.569 20.72 185.569 20C185.569 19.28 185.809 18.672 186.289 18.192C186.769 17.712 187.361 17.472 188.065 17.472C188.769 17.472 189.361 17.712 189.841 18.192C190.321 18.672 190.561 19.28 190.561 20C190.561 20.72 190.321 21.328 189.841 21.808C189.361 22.288 188.769 22.528 188.065 22.528C187.361 22.528 186.769 22.288 186.289 21.808ZM198.38 12.8H196.3L197.996 14.96H199.66L198.38 12.8ZM200.188 17.136C199.532 16.24 198.604 15.792 197.388 15.792C196.284 15.792 195.356 16.192 194.572 17.008C193.788 17.824 193.404 18.816 193.404 20C193.404 21.168 193.788 22.176 194.572 22.992C195.356 23.808 196.284 24.208 197.388 24.208C198.604 24.208 199.532 23.76 200.188 22.848V24H201.916V16H200.188V17.136ZM195.852 21.84C195.372 21.344 195.132 20.736 195.132 20C195.132 19.264 195.372 18.656 195.852 18.176C196.332 17.68 196.94 17.44 197.66 17.44C198.38 17.44 198.988 17.68 199.468 18.176C199.948 18.656 200.188 19.264 200.188 20C200.188 20.736 199.948 21.344 199.468 21.84C198.988 22.32 198.38 22.56 197.66 22.56C196.94 22.56 196.332 22.32 195.852 21.84ZM208.138 15.792C207.002 15.792 206.186 16.208 205.658 17.024V16H203.93V24H205.658V19.712C205.658 18.16 206.474 17.408 207.69 17.408C208.794 17.408 209.482 18.064 209.482 19.264V24H211.21V19.088C211.21 17.04 209.978 15.792 208.138 15.792ZM221.535 16H219.551V13.76L217.823 14.272V16H216.351V17.664H217.823V21.504C217.823 23.6 218.895 24.32 221.535 24V22.448C220.223 22.512 219.551 22.528 219.551 21.504V17.664H221.535V16ZM224.796 14.752C225.228 14.304 225.228 13.664 224.812 13.232C224.38 12.8 223.708 12.8 223.276 13.232C222.86 13.664 222.86 14.304 223.276 14.752C223.724 15.168 224.364 15.168 224.796 14.752ZM224.908 24V16H223.18V24H224.908ZM231.474 14.992H233.106L231.522 12.912H229.842L228.274 14.992H229.906L230.69 13.888L231.474 14.992ZM234.642 20.736C234.69 20.432 234.706 20.192 234.706 20.016C234.706 18.848 234.322 17.84 233.57 17.024C232.818 16.208 231.858 15.792 230.69 15.792C229.458 15.792 228.434 16.192 227.65 17.008C226.866 17.808 226.466 18.8 226.466 20C226.466 21.216 226.866 22.224 227.666 23.024C228.466 23.808 229.522 24.208 230.818 24.208C232.37 24.208 233.538 23.632 234.322 22.464L232.898 21.632C232.434 22.288 231.746 22.624 230.834 22.624C229.506 22.624 228.53 21.952 228.274 20.736H234.642ZM228.258 19.328C228.498 18.112 229.394 17.36 230.674 17.36C231.81 17.36 232.722 18.032 232.962 19.328H228.258ZM234.162 13.472L232.962 11.456H231.026L232.61 13.472H234.162ZM240.435 15.792C239.299 15.792 238.483 16.208 237.955 17.024V16H236.227V24H237.955V19.712C237.955 18.16 238.771 17.408 239.987 17.408C241.091 17.408 241.779 18.064 241.779 19.264V24H243.507V19.088C243.507 17.04 242.275 15.792 240.435 15.792Z" fill="#141414"/>
<path d="M95.112 44.358H90.352V40.2H89.05V50H90.352V45.59H95.112V50H96.4V40.2H95.112V44.358ZM104.279 49.118C104.993 48.404 105.357 47.536 105.357 46.5C105.357 45.464 104.993 44.596 104.279 43.882C103.565 43.168 102.683 42.818 101.661 42.818C100.639 42.818 99.7573 43.168 99.0433 43.882C98.3293 44.596 97.9793 45.464 97.9793 46.5C97.9793 47.536 98.3293 48.404 99.0433 49.118C99.7573 49.832 100.639 50.182 101.661 50.182C102.683 50.182 103.565 49.832 104.279 49.118ZM101.661 48.992C100.975 48.992 100.387 48.754 99.9113 48.278C99.4353 47.802 99.1973 47.214 99.1973 46.5C99.1973 45.786 99.4353 45.198 99.9113 44.722C100.387 44.246 100.975 44.008 101.661 44.008C102.361 44.008 102.949 44.246 103.425 44.722C103.901 45.198 104.139 45.786 104.139 46.5C104.139 47.214 103.901 47.802 103.425 48.278C102.949 48.754 102.361 48.992 101.661 48.992ZM110.587 40.2H109.117L110.531 42.048H111.707L110.587 40.2ZM112.589 44.204C111.987 43.28 111.105 42.818 109.943 42.818C108.963 42.818 108.123 43.182 107.437 43.896C106.751 44.61 106.401 45.478 106.401 46.5C106.401 47.522 106.751 48.404 107.437 49.118C108.123 49.832 108.963 50.182 109.943 50.182C111.105 50.182 111.987 49.72 112.589 48.796V50H113.807V43H112.589V44.204ZM110.097 49.006C109.397 49.006 108.809 48.768 108.333 48.292C107.857 47.802 107.619 47.214 107.619 46.5C107.619 45.786 107.857 45.198 108.333 44.722C108.809 44.232 109.397 43.994 110.097 43.994C110.811 43.994 111.399 44.232 111.875 44.722C112.351 45.198 112.589 45.786 112.589 46.5C112.589 47.214 112.351 47.802 111.875 48.292C111.399 48.768 110.811 49.006 110.097 49.006ZM119.139 42.818C118.117 42.818 117.361 43.21 116.871 44.008V43H115.653V50H116.871V46.29C116.871 44.722 117.683 43.98 118.901 43.98C119.979 43.98 120.637 44.638 120.637 45.772V50H121.855V45.702C121.855 43.924 120.777 42.818 119.139 42.818ZM130.863 43H129.001V41.04L127.783 41.404V43H126.397V44.176H127.783V47.97C127.783 49.706 128.735 50.28 130.863 50V48.908C129.617 48.964 129.001 49.048 129.001 47.97V44.176H130.863V43ZM132.962 42.132C133.41 42.132 133.774 41.768 133.774 41.32C133.774 40.872 133.41 40.494 132.962 40.494C132.5 40.494 132.136 40.872 132.136 41.32C132.136 41.768 132.5 42.132 132.962 42.132ZM133.564 50V43H132.346V50H133.564ZM139.524 42.076H140.742L139.356 40.312H138.11L136.724 42.076H137.942L138.74 41.012L139.524 42.076ZM142.142 47.06C142.17 46.878 142.184 46.696 142.184 46.514C142.184 45.492 141.862 44.624 141.204 43.91C140.56 43.182 139.72 42.818 138.698 42.818C137.62 42.818 136.738 43.168 136.052 43.868C135.366 44.568 135.03 45.45 135.03 46.5C135.03 47.564 135.38 48.446 136.066 49.146C136.766 49.832 137.676 50.182 138.782 50.182C140.154 50.182 141.176 49.65 141.862 48.6L140.826 48.012C140.406 48.698 139.734 49.034 138.81 49.034C137.48 49.034 136.514 48.306 136.276 47.06H142.142ZM138.698 43.966C139.818 43.966 140.742 44.666 140.952 45.996H136.276C136.486 44.764 137.396 43.966 138.698 43.966ZM141.484 40.788L140.434 39.066H139.076L140.378 40.788H141.484ZM147.07 42.818C146.048 42.818 145.292 43.21 144.802 44.008V43H143.584V50H144.802V46.29C144.802 44.722 145.614 43.98 146.832 43.98C147.91 43.98 148.568 44.638 148.568 45.772V50H149.786V45.702C149.786 43.924 148.708 42.818 147.07 42.818ZM154.259 41.096L154.581 42.216L156.667 41.6V50H157.955V40.2H156.835L154.259 41.096ZM166.249 48.796C166.907 47.872 167.243 46.64 167.243 45.1C167.243 43.56 166.907 42.328 166.249 41.404C165.591 40.48 164.653 40.018 163.463 40.018C162.273 40.018 161.335 40.48 160.677 41.404C160.019 42.328 159.683 43.56 159.683 45.1C159.683 46.64 160.019 47.872 160.677 48.796C161.335 49.72 162.273 50.182 163.463 50.182C164.653 50.182 165.591 49.72 166.249 48.796ZM160.985 45.1C160.985 42.65 161.881 41.278 163.463 41.278C165.045 41.278 165.955 42.678 165.955 45.1C165.955 47.522 165.045 48.908 163.463 48.908C161.881 48.908 160.985 47.522 160.985 45.1ZM175.067 48.796C175.725 47.872 176.061 46.64 176.061 45.1C176.061 43.56 175.725 42.328 175.067 41.404C174.409 40.48 173.471 40.018 172.281 40.018C171.091 40.018 170.153 40.48 169.495 41.404C168.837 42.328 168.501 43.56 168.501 45.1C168.501 46.64 168.837 47.872 169.495 48.796C170.153 49.72 171.091 50.182 172.281 50.182C173.471 50.182 174.409 49.72 175.067 48.796ZM169.803 45.1C169.803 42.65 170.699 41.278 172.281 41.278C173.863 41.278 174.773 42.678 174.773 45.1C174.773 47.522 173.863 48.908 172.281 48.908C170.699 48.908 169.803 47.522 169.803 45.1ZM179.398 44.358C180.042 44.358 180.574 44.148 180.98 43.728C181.4 43.308 181.61 42.79 181.61 42.188C181.61 41.586 181.4 41.068 180.98 40.648C180.56 40.228 180.028 40.018 179.398 40.018C178.768 40.018 178.25 40.228 177.816 40.662C177.396 41.082 177.186 41.586 177.186 42.188C177.186 42.79 177.396 43.308 177.816 43.728C178.236 44.148 178.768 44.358 179.398 44.358ZM178.278 42.188C178.278 41.558 178.74 41.054 179.398 41.054C180.056 41.054 180.518 41.558 180.518 42.188C180.518 42.818 180.056 43.336 179.398 43.336C178.74 43.336 178.278 42.846 178.278 42.188ZM178.516 49.006L185.04 41.712L184.354 41.334L177.844 48.614L178.516 49.006ZM185.208 49.538C185.628 49.118 185.838 48.6 185.838 47.998C185.838 47.396 185.628 46.878 185.208 46.458C184.788 46.038 184.256 45.828 183.626 45.828C182.996 45.828 182.464 46.038 182.044 46.458C181.624 46.878 181.414 47.396 181.414 47.998C181.414 48.6 181.624 49.118 182.044 49.538C182.464 49.958 182.996 50.168 183.626 50.168C184.256 50.168 184.788 49.958 185.208 49.538ZM182.814 48.81C182.408 48.362 182.408 47.634 182.814 47.2C183.024 46.976 183.304 46.864 183.626 46.864C183.948 46.864 184.214 46.976 184.424 47.2C184.858 47.634 184.858 48.362 184.424 48.81C184.214 49.02 183.948 49.132 183.626 49.132C183.304 49.132 183.024 49.02 182.814 48.81ZM194.512 42.818C193.49 42.818 192.734 43.21 192.244 44.008V43H191.026V50H192.244V46.29C192.244 44.722 193.056 43.98 194.274 43.98C195.352 43.98 196.01 44.638 196.01 45.772V50H197.228V45.702C197.228 43.924 196.15 42.818 194.512 42.818ZM203.03 42.076H204.248L202.862 40.312H201.616L200.23 42.076H201.448L202.246 41.012L203.03 42.076ZM205.648 47.06C205.676 46.878 205.69 46.696 205.69 46.514C205.69 45.492 205.368 44.624 204.71 43.91C204.066 43.182 203.226 42.818 202.204 42.818C201.126 42.818 200.244 43.168 199.558 43.868C198.872 44.568 198.536 45.45 198.536 46.5C198.536 47.564 198.886 48.446 199.572 49.146C200.272 49.832 201.182 50.182 202.288 50.182C203.66 50.182 204.682 49.65 205.368 48.6L204.332 48.012C203.912 48.698 203.24 49.034 202.316 49.034C200.986 49.034 200.02 48.306 199.782 47.06H205.648ZM202.204 43.966C203.324 43.966 204.248 44.666 204.458 45.996H199.782C199.992 44.764 200.902 43.966 202.204 43.966ZM203.646 40.788H204.738L206.068 39.066H204.682L203.646 40.788ZM211.92 46.71C211.92 48.278 211.108 49.02 209.89 49.02C208.812 49.02 208.154 48.362 208.154 47.228V43H206.936V47.298C206.936 49.076 208.014 50.182 209.652 50.182C210.674 50.182 211.43 49.79 211.92 48.992V50H213.138V43H211.92V46.71ZM219.542 44.89C219.542 44.288 220.102 43.952 220.788 43.952C221.53 43.952 222.034 44.246 222.286 44.848L223.308 44.274C222.86 43.364 221.922 42.818 220.788 42.818C220.074 42.818 219.486 43.014 219.01 43.406C218.548 43.798 218.31 44.302 218.31 44.904C218.31 46.388 219.738 46.752 220.844 47.046C221.614 47.228 222.23 47.536 222.23 48.082C222.23 48.74 221.642 49.034 220.844 49.034C219.99 49.034 219.332 48.614 219.108 47.942L218.058 48.544C218.464 49.538 219.486 50.182 220.844 50.182C221.614 50.182 222.23 49.986 222.72 49.608C223.21 49.23 223.462 48.712 223.462 48.082C223.476 46.584 222.02 46.178 220.928 45.94C220.158 45.73 219.542 45.436 219.542 44.89ZM229.468 42.09C229.426 41.768 229.538 41.684 229.72 41.6C229.986 41.46 230.238 41.152 230.238 40.62C230.238 39.906 229.692 39.57 229.034 39.57C228.418 39.57 227.872 39.836 227.606 40.494L228.39 40.83C228.502 40.494 228.782 40.396 229.034 40.396C229.272 40.396 229.384 40.494 229.384 40.634C229.384 40.858 229.202 40.942 229.118 40.984C229.104 40.998 228.894 41.124 228.894 41.124C228.628 41.334 228.614 41.474 228.614 42.09H229.468ZM230.7 44.204C230.098 43.28 229.216 42.818 228.054 42.818C227.074 42.818 226.234 43.182 225.548 43.896C224.862 44.61 224.512 45.478 224.512 46.5C224.512 47.522 224.862 48.404 225.548 49.118C226.234 49.832 227.074 50.182 228.054 50.182C229.216 50.182 230.098 49.72 230.7 48.796V50H231.918V43H230.7V44.204ZM228.208 49.006C227.508 49.006 226.92 48.768 226.444 48.292C225.968 47.802 225.73 47.214 225.73 46.5C225.73 45.786 225.968 45.198 226.444 44.722C226.92 44.232 227.508 43.994 228.208 43.994C228.922 43.994 229.51 44.232 229.986 44.722C230.462 45.198 230.7 45.786 230.7 46.5C230.7 47.214 230.462 47.802 229.986 48.292C229.51 48.768 228.922 49.006 228.208 49.006ZM237.25 42.818C236.228 42.818 235.472 43.21 234.982 44.008V43H233.764V50H234.982V46.29C234.982 44.722 235.794 43.98 237.012 43.98C238.09 43.98 238.748 44.638 238.748 45.772V50H239.966V45.702C239.966 43.924 238.888 42.818 237.25 42.818ZM249.03 42.818C247.868 42.818 246.986 43.28 246.384 44.204V43H245.166V52.8H246.384V48.796C246.986 49.72 247.868 50.182 249.03 50.182C250.01 50.182 250.85 49.832 251.536 49.118C252.222 48.404 252.572 47.522 252.572 46.5C252.572 45.478 252.222 44.61 251.536 43.896C250.85 43.182 250.01 42.818 249.03 42.818ZM248.876 49.006C248.162 49.006 247.574 48.768 247.098 48.292C246.622 47.802 246.384 47.214 246.384 46.5C246.384 45.786 246.622 45.198 247.098 44.722C247.574 44.232 248.162 43.994 248.876 43.994C249.576 43.994 250.164 44.232 250.64 44.722C251.116 45.198 251.354 45.786 251.354 46.5C251.354 47.214 251.116 47.802 250.64 48.292C250.164 48.768 249.576 49.006 248.876 49.006ZM257.512 42.818C256.49 42.818 255.734 43.21 255.244 44.008V40.2H254.026V50H255.244V46.29C255.244 44.722 256.056 43.98 257.274 43.98C258.352 43.98 259.01 44.638 259.01 45.772V50H260.228V45.702C260.228 43.924 259.15 42.818 257.512 42.818ZM266.632 42.09H267.85L266.464 40.326H265.218L263.832 42.09H265.05L265.848 41.026L266.632 42.09ZM267.724 44.204C267.122 43.28 266.24 42.818 265.078 42.818C264.098 42.818 263.258 43.182 262.572 43.896C261.886 44.61 261.536 45.478 261.536 46.5C261.536 47.522 261.886 48.404 262.572 49.118C263.258 49.832 264.098 50.182 265.078 50.182C266.24 50.182 267.122 49.72 267.724 48.796V50H268.942V43H267.724V44.204ZM265.232 49.006C264.532 49.006 263.944 48.768 263.468 48.292C262.992 47.802 262.754 47.214 262.754 46.5C262.754 45.786 262.992 45.198 263.468 44.722C263.944 44.232 264.532 43.994 265.232 43.994C265.946 43.994 266.534 44.232 267.01 44.722C267.486 45.198 267.724 45.786 267.724 46.5C267.724 47.214 267.486 47.802 267.01 48.292C266.534 48.768 265.946 49.006 265.232 49.006ZM268.088 40.802C268.046 40.494 268.144 40.424 268.312 40.34C268.564 40.214 268.802 39.92 268.802 39.43C268.802 38.758 268.298 38.45 267.682 38.45C267.108 38.45 266.604 38.702 266.352 39.318L267.08 39.626C267.192 39.318 267.444 39.22 267.682 39.22C267.906 39.22 268.004 39.318 268.004 39.444C268.004 39.654 267.836 39.724 267.752 39.766C267.752 39.78 267.556 39.892 267.556 39.892C267.304 40.088 267.29 40.228 267.29 40.802H268.088ZM278.347 42.818C277.367 42.818 276.639 43.21 276.149 44.008C275.715 43.21 275.029 42.818 274.091 42.818C273.181 42.818 272.481 43.196 272.005 43.938V43H270.787V50H272.005V46.108C272.005 44.694 272.775 43.98 273.797 43.98C274.707 43.98 275.281 44.61 275.281 45.688V50H276.499V46.108C276.499 44.666 277.171 43.98 278.221 43.98C279.159 43.98 279.761 44.61 279.761 45.688V50H280.979V45.646C280.979 43.91 279.915 42.818 278.347 42.818ZM288.632 46.388L291.978 43H290.41L287.386 46.094V40.2H286.168V50H287.386V46.682L290.578 50H292.09L288.632 46.388ZM296.709 42.818C295.687 42.818 294.931 43.21 294.441 44.008V40.2H293.223V50H294.441V46.29C294.441 44.722 295.253 43.98 296.471 43.98C297.549 43.98 298.207 44.638 298.207 45.772V50H299.425V45.702C299.425 43.924 298.347 42.818 296.709 42.818ZM305.255 42.048H306.557L305.073 40.158H303.729L302.245 42.048H303.547L304.401 40.914L305.255 42.048ZM301.797 43.882C301.083 44.596 300.733 45.464 300.733 46.5C300.733 47.536 301.083 48.404 301.797 49.118C302.511 49.832 303.393 50.182 304.415 50.182C305.437 50.182 306.319 49.832 307.033 49.118C307.747 48.404 308.111 47.536 308.111 46.5C308.111 45.464 307.747 44.596 307.033 43.882C306.319 43.168 305.437 42.818 304.415 42.818C303.393 42.818 302.511 43.168 301.797 43.882ZM304.415 48.992C303.729 48.992 303.141 48.754 302.665 48.278C302.189 47.802 301.951 47.214 301.951 46.5C301.951 45.786 302.189 45.198 302.665 44.722C303.141 44.246 303.729 44.008 304.415 44.008C305.115 44.008 305.703 44.246 306.179 44.722C306.655 45.198 306.893 45.786 306.893 46.5C306.893 47.214 306.655 47.802 306.179 48.278C305.703 48.754 305.115 48.992 304.415 48.992ZM313.033 42.818C312.011 42.818 311.255 43.21 310.765 44.008V43H309.547V50H310.765V46.29C310.765 44.722 311.577 43.98 312.795 43.98C313.873 43.98 314.531 44.638 314.531 45.772V50H315.749V45.702C315.749 43.924 314.671 42.818 313.033 42.818ZM323.259 44.204C322.657 43.28 321.775 42.818 320.627 42.818C319.633 42.818 318.779 43.168 318.093 43.882C317.407 44.582 317.057 45.436 317.057 46.458C317.057 47.48 317.407 48.334 318.093 49.048C318.779 49.762 319.633 50.112 320.627 50.112C321.761 50.112 322.643 49.65 323.259 48.712V49.706C323.259 51.036 322.377 51.848 320.921 51.848C319.787 51.848 319.017 51.456 318.639 50.672L317.575 51.274C318.149 52.38 319.325 52.982 320.893 52.982C321.873 52.982 322.713 52.688 323.413 52.114C324.113 51.54 324.463 50.742 324.463 49.706V43H323.259V44.204ZM323.259 46.458C323.259 47.172 323.021 47.76 322.545 48.236C322.069 48.712 321.481 48.95 320.767 48.95C320.053 48.95 319.465 48.712 318.989 48.236C318.513 47.76 318.275 47.172 318.275 46.458C318.275 45.758 318.513 45.17 318.989 44.694C319.465 44.218 320.053 43.98 320.767 43.98C321.481 43.98 322.069 44.218 322.545 44.694C323.021 45.17 323.259 45.758 323.259 46.458ZM333.617 43H331.755V41.04L330.537 41.404V43H329.151V44.176H330.537V47.97C330.537 49.706 331.489 50.28 333.617 50V48.908C332.371 48.964 331.755 49.048 331.755 47.97V44.176H333.617V43ZM339.16 42.048H340.378L338.992 40.284H337.746L336.36 42.048H337.578L338.376 40.984L339.16 42.048ZM335.772 43.882C335.058 44.596 334.708 45.464 334.708 46.5C334.708 47.536 335.058 48.404 335.772 49.118C336.486 49.832 337.368 50.182 338.39 50.182C339.412 50.182 340.294 49.832 341.008 49.118C341.722 48.404 342.086 47.536 342.086 46.5C342.086 45.464 341.722 44.596 341.008 43.882C340.294 43.168 339.412 42.818 338.39 42.818C337.368 42.818 336.486 43.168 335.772 43.882ZM338.39 48.992C337.704 48.992 337.116 48.754 336.64 48.278C336.164 47.802 335.926 47.214 335.926 46.5C335.926 45.786 336.164 45.198 336.64 44.722C337.116 44.246 337.704 44.008 338.39 44.008C339.09 44.008 339.678 44.246 340.154 44.722C340.63 45.198 340.868 45.786 340.868 46.5C340.868 47.214 340.63 47.802 340.154 48.278C339.678 48.754 339.09 48.992 338.39 48.992ZM339.776 40.76H340.868L342.198 39.038H340.812L339.776 40.76ZM347.33 43H345.468V41.04L344.25 41.404V43H342.864V44.176H344.25V47.97C344.25 49.706 345.202 50.28 347.33 50V48.908C346.084 48.964 345.468 49.048 345.468 47.97V44.176H347.33V43Z" fill="#616161"/>
<defs>
<linearGradient id="paint0_linear_237_28938" x1="64" y1="6.35783e-05" x2="-1.40689" y2="1.47172" gradientUnits="userSpaceOnUse">
<stop stop-color="#00A0FB"/>
<stop offset="1" stop-color="#F0D905"/>
</linearGradient>
<clipPath id="clip0_237_28938">
<rect width="40" height="40" fill="white" transform="translate(12 12)"/>
</clipPath>
</defs>
</svg>
