<svg width="51" height="41" viewBox="0 0 51 41" fill="none" xmlns="http://www.w3.org/2000/svg">
<path fill-rule="evenodd" clip-rule="evenodd" d="M21.2999 16.7997C20.1449 16.7997 19.2104 17.7447 19.2104 18.8997C19.2104 20.0546 20.1449 20.9996 21.2999 20.9996C22.4549 20.9996 23.3999 20.0546 23.3999 18.8997C23.3999 17.7447 22.4549 16.7997 21.2999 16.7997ZM15 1.04998C15 1.62747 15.4725 2.09996 16.05 2.09996H17.1L20.8799 10.0693L19.4624 12.6313C18.6959 14.0383 19.7039 15.7497 21.2999 15.7497H32.8497C33.4272 15.7497 33.8997 15.2772 33.8997 14.6997C33.8997 14.1223 33.4272 13.6498 32.8497 13.6498H21.2999L22.4549 11.5498H30.2772C31.0647 11.5498 31.7577 11.1193 32.1147 10.4683L35.8736 3.65394C36.2621 2.96095 35.7581 2.09996 34.9601 2.09996H19.4204L18.7169 0.598489C18.5489 0.230996 18.1709 0 17.772 0H16.05C15.4725 0 15 0.472492 15 1.04998ZM31.7997 16.7997C30.6447 16.7997 29.7102 17.7447 29.7102 18.8997C29.7102 20.0546 30.6447 20.9996 31.7997 20.9996C32.9547 20.9996 33.8997 20.0546 33.8997 18.8997C33.8997 17.7447 32.9547 16.7997 31.7997 16.7997Z" fill="#8B96A5"/>
<path d="M7.07546 32C6.98171 31.7131 6.85813 31.456 6.70472 31.2287C6.55415 30.9986 6.37376 30.8026 6.16353 30.6406C5.95614 30.4787 5.72035 30.3551 5.45614 30.2699C5.19194 30.1847 4.90217 30.142 4.58683 30.142C4.06978 30.142 3.59961 30.2756 3.17631 30.5426C2.75302 30.8097 2.41637 31.2031 2.16637 31.723C1.91637 32.2429 1.79137 32.8807 1.79137 33.6364C1.79137 34.392 1.91779 35.0298 2.17063 35.5497C2.42347 36.0696 2.7658 36.4631 3.19762 36.7301C3.62944 36.9972 4.11523 37.1307 4.65501 37.1307C5.15501 37.1307 5.59535 37.0241 5.97603 36.8111C6.35955 36.5952 6.65785 36.2912 6.87092 35.8991C7.08683 35.5043 7.19478 35.0398 7.19478 34.5057L7.51864 34.5739H4.89364V33.6364H8.21751V34.5739C8.21751 35.2926 8.0641 35.9176 7.75728 36.4489C7.4533 36.9801 7.03285 37.392 6.49592 37.6847C5.96183 37.9744 5.34819 38.1193 4.65501 38.1193C3.88228 38.1193 3.2033 37.9375 2.61808 37.5739C2.03569 37.2102 1.58114 36.6932 1.25444 36.0227C0.930575 35.3523 0.768643 34.5568 0.768643 33.6364C0.768643 32.946 0.860973 32.3253 1.04563 31.7741C1.23313 31.2202 1.49734 30.7486 1.83825 30.3594C2.17915 29.9702 2.58256 29.6719 3.04847 29.4645C3.51438 29.2571 4.02717 29.1534 4.58683 29.1534C5.04705 29.1534 5.47603 29.223 5.87376 29.3622C6.27433 29.4986 6.63086 29.6932 6.94336 29.946C7.2587 30.196 7.52148 30.4957 7.73171 30.8452C7.94194 31.1918 8.08683 31.5767 8.16637 32H7.07546ZM10.3013 38V31.4545H11.307V38H10.3013ZM10.8127 30.3636C10.6167 30.3636 10.4476 30.2969 10.3056 30.1634C10.1664 30.0298 10.0968 29.8693 10.0968 29.6818C10.0968 29.4943 10.1664 29.3338 10.3056 29.2003C10.4476 29.0668 10.6167 29 10.8127 29C11.0087 29 11.1763 29.0668 11.3155 29.2003C11.4576 29.3338 11.5286 29.4943 11.5286 29.6818C11.5286 29.8693 11.4576 30.0298 11.3155 30.1634C11.1763 30.2969 11.0087 30.3636 10.8127 30.3636ZM15.8081 38.1364C15.2172 38.1364 14.6987 37.9957 14.2527 37.7145C13.8095 37.4332 13.4629 37.0398 13.2129 36.5341C12.9657 36.0284 12.8422 35.4375 12.8422 34.7614C12.8422 34.0795 12.9657 33.4844 13.2129 32.9759C13.4629 32.4673 13.8095 32.0724 14.2527 31.7912C14.6987 31.5099 15.2172 31.3693 15.8081 31.3693C16.399 31.3693 16.916 31.5099 17.3592 31.7912C17.8052 32.0724 18.1518 32.4673 18.399 32.9759C18.649 33.4844 18.774 34.0795 18.774 34.7614C18.774 35.4375 18.649 36.0284 18.399 36.5341C18.1518 37.0398 17.8052 37.4332 17.3592 37.7145C16.916 37.9957 16.399 38.1364 15.8081 38.1364ZM15.8081 37.233C16.2569 37.233 16.6262 37.1179 16.916 36.8878C17.2058 36.6577 17.4203 36.3551 17.5595 35.9801C17.6987 35.6051 17.7683 35.1989 17.7683 34.7614C17.7683 34.3239 17.6987 33.9162 17.5595 33.5384C17.4203 33.1605 17.2058 32.8551 16.916 32.6222C16.6262 32.3892 16.2569 32.2727 15.8081 32.2727C15.3592 32.2727 14.9899 32.3892 14.7001 32.6222C14.4103 32.8551 14.1958 33.1605 14.0566 33.5384C13.9174 33.9162 13.8478 34.3239 13.8478 34.7614C13.8478 35.1989 13.9174 35.6051 14.0566 35.9801C14.1958 36.3551 14.4103 36.6577 14.7001 36.8878C14.9899 37.1179 15.3592 37.233 15.8081 37.233ZM16.2512 30.5682H15.416V29.6477C15.7143 29.6307 15.9245 29.5895 16.0467 29.5241C16.1717 29.4588 16.2342 29.358 16.2342 29.2216C16.2342 29.0682 16.1447 28.956 15.9657 28.8849C15.7868 28.8139 15.5694 28.7784 15.3137 28.7784L15.3478 28.1307C15.9359 28.1307 16.3805 28.233 16.6816 28.4375C16.9856 28.642 17.1376 28.9148 17.1376 29.2557C17.1376 29.5455 17.0453 29.7571 16.8606 29.8906C16.676 30.0241 16.4728 30.108 16.2512 30.142V30.5682ZM24.6898 34.0625V38H23.6841V29.2727H24.6898V32.4773H24.775C24.9284 32.1392 25.1586 31.8707 25.4654 31.6719C25.775 31.4702 26.187 31.3693 26.7012 31.3693C27.1472 31.3693 27.5378 31.4588 27.873 31.6378C28.2083 31.8139 28.4682 32.0852 28.6529 32.4517C28.8404 32.8153 28.9341 33.2784 28.9341 33.8409V38H27.9284V33.9091C27.9284 33.3892 27.7935 32.9872 27.5236 32.7031C27.2566 32.4162 26.8858 32.2727 26.4114 32.2727C26.0819 32.2727 25.7864 32.3423 25.525 32.4815C25.2665 32.6207 25.062 32.8239 24.9114 33.0909C24.7637 33.358 24.6898 33.6818 24.6898 34.0625ZM32.7001 38.1534C32.2853 38.1534 31.9089 38.0753 31.5708 37.919C31.2328 37.7599 30.9643 37.5312 30.7654 37.233C30.5666 36.9318 30.4672 36.5682 30.4672 36.142C30.4672 35.767 30.541 35.4631 30.6887 35.2301C30.8365 34.9943 31.0339 34.8097 31.2811 34.6761C31.5282 34.5426 31.801 34.4432 32.0993 34.3778C32.4004 34.3097 32.7029 34.2557 33.0069 34.2159C33.4047 34.1648 33.7271 34.1264 33.9743 34.1009C34.2243 34.0724 34.4061 34.0256 34.5197 33.9602C34.6362 33.8949 34.6944 33.7812 34.6944 33.6193V33.5852C34.6944 33.1648 34.5794 32.8381 34.3493 32.6051C34.122 32.3722 33.7768 32.2557 33.3137 32.2557C32.8336 32.2557 32.4572 32.3608 32.1845 32.571C31.9118 32.7812 31.72 33.0057 31.6092 33.2443L30.6547 32.9034C30.8251 32.5057 31.0524 32.196 31.3365 31.9744C31.6234 31.75 31.9359 31.5937 32.274 31.5057C32.6149 31.4148 32.9501 31.3693 33.2797 31.3693C33.4899 31.3693 33.7314 31.3949 34.0041 31.446C34.2797 31.4943 34.5453 31.5952 34.801 31.7486C35.0595 31.902 35.274 32.1335 35.4444 32.4432C35.6149 32.7528 35.7001 33.1676 35.7001 33.6875V38H34.6944V37.1136H34.6433C34.5751 37.2557 34.4615 37.4077 34.3024 37.5696C34.1433 37.7315 33.9316 37.8693 33.6674 37.983C33.4032 38.0966 33.0808 38.1534 32.7001 38.1534ZM32.8535 37.25C33.2512 37.25 33.5865 37.1719 33.8592 37.0156C34.1348 36.8594 34.3422 36.6577 34.4814 36.4105C34.6234 36.1634 34.6944 35.9034 34.6944 35.6307V34.7102C34.6518 34.7614 34.5581 34.8082 34.4132 34.8509C34.2711 34.8906 34.1064 34.9261 33.9189 34.9574C33.7342 34.9858 33.5538 35.0114 33.3777 35.0341C33.2044 35.054 33.0637 35.071 32.9558 35.0852C32.6944 35.1193 32.4501 35.1747 32.2228 35.2514C31.9984 35.3253 31.8166 35.4375 31.6774 35.5881C31.541 35.7358 31.4728 35.9375 31.4728 36.1932C31.4728 36.5426 31.6021 36.8068 31.8606 36.9858C32.122 37.1619 32.4529 37.25 32.8535 37.25ZM32.9217 30.5682L31.5922 28.5909H32.7683L33.8081 30.5682H32.9217ZM38.5414 34.0625V38H37.5357V31.4545H38.5073V32.4773H38.5925C38.7459 32.1449 38.9789 31.8778 39.2914 31.6761C39.6039 31.4716 40.0073 31.3693 40.5016 31.3693C40.9448 31.3693 41.3326 31.4602 41.665 31.642C41.9973 31.821 42.2559 32.0938 42.4405 32.4602C42.6252 32.8239 42.7175 33.2841 42.7175 33.8409V38H41.7118V33.9091C41.7118 33.3949 41.5783 32.9943 41.3113 32.7074C41.0442 32.4176 40.6777 32.2727 40.2118 32.2727C39.8908 32.2727 39.6039 32.3423 39.351 32.4815C39.101 32.6207 38.9036 32.8239 38.7587 33.0909C38.6138 33.358 38.5414 33.6818 38.5414 34.0625ZM47.1973 40.5909C46.7115 40.5909 46.2939 40.5284 45.9444 40.4034C45.595 40.2812 45.3038 40.1193 45.0708 39.9176C44.8407 39.7188 44.6575 39.5057 44.5211 39.2784L45.3223 38.7159C45.4132 38.8352 45.5282 38.9716 45.6674 39.125C45.8066 39.2812 45.997 39.4162 46.2385 39.5298C46.4828 39.6463 46.8024 39.7045 47.1973 39.7045C47.7257 39.7045 48.1618 39.5767 48.5055 39.321C48.8493 39.0653 49.0211 38.6648 49.0211 38.1193V36.7898H48.9359C48.862 36.9091 48.7569 37.0568 48.6206 37.233C48.487 37.4062 48.2939 37.5611 48.041 37.6974C47.791 37.831 47.4529 37.8977 47.0268 37.8977C46.4984 37.8977 46.024 37.7727 45.6035 37.5227C45.1859 37.2727 44.8549 36.9091 44.6106 36.4318C44.3691 35.9545 44.2484 35.375 44.2484 34.6932C44.2484 34.0227 44.3663 33.4389 44.6021 32.9418C44.8379 32.4418 45.166 32.0554 45.5865 31.7827C46.0069 31.5071 46.4927 31.3693 47.0439 31.3693C47.47 31.3693 47.8081 31.4403 48.0581 31.5824C48.3109 31.7216 48.5041 31.8807 48.6376 32.0597C48.774 32.2358 48.8791 32.3807 48.9529 32.4943H49.0552V31.4545H50.0268V38.1875C50.0268 38.75 49.899 39.2074 49.6433 39.5597C49.3904 39.9148 49.0495 40.1747 48.6206 40.3395C48.1944 40.5071 47.72 40.5909 47.1973 40.5909ZM47.1632 36.9943C47.5666 36.9943 47.9075 36.902 48.1859 36.7173C48.4643 36.5327 48.676 36.267 48.8208 35.9205C48.9657 35.5739 49.0382 35.1591 49.0382 34.6761C49.0382 34.2045 48.9672 33.7884 48.8251 33.4276C48.6831 33.0668 48.4728 32.7841 48.1944 32.5795C47.916 32.375 47.5723 32.2727 47.1632 32.2727C46.737 32.2727 46.3819 32.3807 46.0978 32.5966C45.8166 32.8125 45.6049 33.1023 45.4629 33.4659C45.3237 33.8295 45.2541 34.233 45.2541 34.6761C45.2541 35.1307 45.3251 35.5327 45.4672 35.8821C45.612 36.2287 45.8251 36.5014 46.1064 36.7003C46.3904 36.8963 46.7427 36.9943 47.1632 36.9943Z" fill="#8B96A5"/>
</svg>
