<svg width="18" height="18" viewBox="0 0 18 18" fill="none" xmlns="http://www.w3.org/2000/svg">
<path d="M8.21086 2.38237C4.99711 2.38237 2.38235 4.99712 2.38235 8.21087C2.38235 11.4248 4.99711 14.0394 8.21086 14.0394C11.4248 14.0394 14.0394 11.4248 14.0394 8.21087C14.0394 4.99712 11.4248 2.38237 8.21086 2.38237ZM8.21086 12.9634C5.59036 12.9634 3.45838 10.8314 3.45838 8.2109C3.45838 5.5904 5.59036 3.4584 8.21086 3.4584C10.8313 3.4584 12.9633 5.59038 12.9633 8.21087C12.9633 10.8314 10.8313 12.9634 8.21086 12.9634Z" fill="#303238"/>
<path fill-rule="evenodd" clip-rule="evenodd" d="M2.25 8.21087C2.25 4.92403 4.92401 2.25002 8.21086 2.25002C11.4979 2.25002 14.1717 4.92403 14.1717 8.21087C14.1717 11.4979 11.4979 14.1717 8.21086 14.1717C4.92401 14.1717 2.25 11.4979 2.25 8.21087ZM3.59074 8.2109C3.59074 10.7583 5.66346 12.831 8.21086 12.831C10.7583 12.831 12.831 10.7583 12.831 8.21087C12.831 5.66347 10.7583 3.59075 8.21086 3.59075C5.66346 3.59075 3.59074 5.6635 3.59074 8.2109ZM2.38235 8.21087C2.38235 4.99712 4.99711 2.38237 8.21086 2.38237C11.4248 2.38237 14.0394 4.99712 14.0394 8.21087C14.0394 11.4248 11.4248 14.0394 8.21086 14.0394C4.99711 14.0394 2.38235 11.4248 2.38235 8.21087ZM3.45838 8.2109C3.45838 10.8314 5.59036 12.9634 8.21086 12.9634C10.8313 12.9634 12.9633 10.8314 12.9633 8.21087C12.9633 5.59038 10.8313 3.4584 8.21086 3.4584C5.59036 3.4584 3.45838 5.5904 3.45838 8.2109Z" fill="#303238"/>
<path d="M15.46 14.6992L12.3754 11.6145C12.1652 11.4043 11.8248 11.4043 11.6146 11.6145C11.4044 11.8245 11.4044 12.1653 11.6146 12.3753L14.6992 15.4599C14.8043 15.565 14.9419 15.6176 15.0796 15.6176C15.2172 15.6176 15.3549 15.565 15.46 15.4599C15.6702 15.2499 15.6702 14.9092 15.46 14.6992Z" fill="#303238"/>
<path fill-rule="evenodd" clip-rule="evenodd" d="M12.469 11.5209L15.5536 14.6055C15.8155 14.8672 15.8155 15.2918 15.5536 15.5535M12.469 11.5209C12.2071 11.2591 11.7829 11.2591 11.5211 11.5209L12.469 11.5209ZM11.5211 11.5209C11.5211 11.5209 11.5211 11.5209 11.5211 11.5209C11.2592 11.7826 11.2592 12.2072 11.521 12.4689C11.521 12.4689 11.521 12.4689 11.521 12.4689L14.6057 15.5535C14.7365 15.6844 14.9082 15.7499 15.0796 15.7499C15.2509 15.7499 15.4227 15.6844 15.5536 15.5535M12.3754 11.6145L15.46 14.6992C15.6702 14.9092 15.6702 15.2499 15.46 15.4599C15.3549 15.565 15.2172 15.6176 15.0796 15.6176C14.9419 15.6176 14.8043 15.565 14.6992 15.4599L11.6146 12.3753C11.4044 12.1653 11.4044 11.8245 11.6146 11.6145C11.8248 11.4043 12.1652 11.4043 12.3754 11.6145Z" fill="#303238"/>
</svg>
