<svg width="28" height="28" viewBox="0 0 28 28" fill="none" xmlns="http://www.w3.org/2000/svg">
<path d="M28.0007 14C28.0007 21.7317 21.7324 28 14 28H13.9738C6.25381 27.9855 0 21.7214 0 14C0 6.27865 6.25381 0.0137992 13.9738 0H14C21.7324 0 28.0007 6.26623 28.0007 14Z" fill="black"/>
<path d="M13.9738 0V28C6.25381 27.9855 0 21.7214 0 14C0 6.27865 6.25381 0.0137992 13.9738 0Z" fill="#0C0C0C"/>
<path d="M21.6178 10.1245L21.6005 12.9926C21.0416 12.9858 20.4856 12.9112 19.9446 12.7705C19.1101 12.5525 18.323 12.1822 17.6229 11.6783C17.6229 11.9715 17.6271 12.4089 17.6271 12.9409C17.6271 13.6488 17.6271 14.051 17.6229 14.4781C17.6105 17.1165 17.676 17.6271 17.4442 18.6703C17.396 18.9219 17.33 19.1698 17.2469 19.412C16.8012 20.654 15.8297 21.6489 14.8396 22.1781C14.5633 22.325 14.2733 22.4445 13.9737 22.5348C12.1025 23.102 9.85395 22.6038 8.69344 21.2239L8.68585 21.2156L8.67688 21.2039C7.69092 20.0144 7.47565 18.1598 7.45495 17.6851C7.45495 17.6244 7.45082 17.565 7.45082 17.565C7.43563 16.9166 7.52891 16.2701 7.7268 15.6524C7.92689 15.0135 8.5858 13.6799 10.0658 12.8698C10.9888 12.3726 12.0423 12.171 13.0837 12.2923L13.0498 15.195C12.9912 15.1798 11.5733 14.8438 10.6426 15.8098C9.79944 16.6846 9.85395 18.0942 10.4521 18.8925C10.4839 18.9353 10.5177 18.9767 10.5529 19.0153C10.8875 19.3886 11.3118 19.5287 11.5982 19.6266C11.9778 19.7517 12.3763 19.8101 12.7759 19.7991C13.204 19.7924 13.6204 19.6587 13.9723 19.4148C14.9452 18.7538 15.0763 17.5768 15.0811 17.5098C15.0691 13.7206 15.0579 9.93129 15.0473 6.14203V6.13858L16.8709 6.10615H16.9005L17.1648 6.10132C17.3596 6.80256 17.6899 7.45887 18.1369 8.03321C18.2778 8.21285 18.4299 8.38338 18.5923 8.54378C19.206 9.14107 19.9432 9.59655 20.7519 9.87817H20.7574C21.038 9.98069 21.3255 10.063 21.6178 10.1245Z" fill="#FD2854"/>
<path d="M20.7935 11.4223H20.788C19.8059 11.5796 18.8006 11.5033 17.8536 11.1994C17.1923 10.9844 16.5716 10.6605 16.0169 10.2411C16.3495 12.2513 16.3495 14.3025 16.0169 16.3127C15.623 18.6751 15.3759 20.1558 14.0574 21.1031C14.0298 21.1231 14.0015 21.1431 13.9733 21.1618C12.1525 22.3947 9.60857 21.7827 8.67643 21.2025L8.66263 21.1942L8.63641 21.1776C8.32916 20.9741 8.04096 20.7432 7.77534 20.4877C7.29918 20.0258 6.91922 19.4742 6.65739 18.8646C6.39556 18.2551 6.25705 17.5998 6.24984 16.9364C6.23212 16.2494 6.34618 15.5652 6.58585 14.9211C6.74109 14.5071 7.31789 13.0347 8.92481 12.1385C9.95378 11.5743 11.1428 11.373 12.3001 11.5672C12.2955 11.7972 12.2911 12.0271 12.287 12.2571V12.262L12.2601 13.7178C11.7565 13.5991 11.2358 13.5701 10.7222 13.6322C10.3082 13.6833 9.90249 13.7309 9.47126 14.002C8.91899 14.3575 8.5281 14.9154 8.38251 15.5558C8.29037 15.866 8.27147 16.1934 8.32731 16.5121C8.34387 16.6032 8.4653 17.2359 8.97587 17.6899C9.14767 17.8424 9.22081 17.8486 9.47126 18.0825C9.69205 18.2895 9.74725 18.3888 9.94941 18.5606C9.94941 18.5606 9.99908 18.6027 10.0805 18.662C10.0857 18.6666 10.0913 18.6707 10.0971 18.6745C10.2084 18.7559 10.3253 18.8294 10.4469 18.8946C10.9526 19.1595 11.8578 19.1878 12.5216 18.8656C13.4399 18.4192 13.9408 17.3925 13.9388 16.7826C13.9277 12.9919 13.9165 9.20152 13.905 5.41133H13.9684L16.7849 5.39478C16.7828 5.61446 16.8133 5.83324 16.8752 6.04403C16.8821 6.0668 16.889 6.08819 16.8966 6.11302C16.9042 6.13786 16.909 6.14959 16.9153 6.16684C16.959 6.2815 17.0094 6.39347 17.0664 6.50216L17.1057 6.58151V6.58772C17.1051 6.5895 17.1051 6.59145 17.1057 6.59324L17.1119 6.60635L17.1181 6.61877C17.1218 6.62679 17.126 6.63462 17.1305 6.64222C17.1347 6.65119 17.1395 6.66016 17.1443 6.66913C17.1705 6.7195 17.2064 6.78574 17.2471 6.86025C17.2727 6.90648 17.2996 6.95271 17.3272 6.99824L17.3568 7.04723C17.3713 7.07207 17.3865 7.09691 17.4017 7.12106L17.4569 7.20868C17.6715 7.54745 18.0482 8.11805 18.5822 8.54928C19.3329 9.15506 20.1953 9.32617 20.7363 9.37723C20.7397 9.54696 20.7438 9.71669 20.7473 9.88642C20.7675 10.3988 20.7829 10.9108 20.7935 11.4223Z" fill="#24F6FA"/>
<path d="M20.8021 12.2329C19.3804 12.2851 17.9846 11.8431 16.8521 10.982V17.0537C16.8383 17.2862 16.6348 19.8508 14.3179 21.2625C14.2033 21.3315 14.0881 21.3956 13.9729 21.455C11.7933 22.5672 9.66339 21.6958 9.45295 21.6054C9.24371 21.537 9.04318 21.4444 8.85545 21.3294C8.7968 21.2928 8.73953 21.2549 8.68503 21.2155L8.63604 21.179C7.21472 20.0999 7.15607 17.9017 7.1471 17.5774C7.13192 16.9289 7.2252 16.2825 7.42309 15.6648C7.65768 14.9162 8.35799 13.6543 9.76206 12.8822C10.5368 12.4606 11.4075 12.2467 12.2894 12.2612V12.2661C12.2779 12.9951 12.2664 13.7244 12.2549 14.4539C12.1065 14.4139 11.1972 14.1848 10.3085 14.7444C9.75623 15.0999 9.36534 15.6577 9.21975 16.2982C9.13263 16.609 9.1138 16.935 9.16455 17.2538C9.24334 17.6474 9.42907 18.0117 9.70134 18.3067C9.8158 18.4385 9.94367 18.558 10.0829 18.6634C10.0881 18.6679 10.0936 18.6721 10.0994 18.6758C10.2088 18.7601 10.3259 18.8338 10.4493 18.8959L10.4534 18.8993C10.7 19.2717 11.0556 19.5586 11.4716 19.7209C11.8876 19.8832 12.3436 19.9129 12.7772 19.806C12.9792 19.7638 13.1754 19.6976 13.3616 19.6086C13.5871 19.5014 13.7938 19.3583 13.9736 19.185C14.6718 18.5137 14.7739 17.585 14.7788 17.5291L14.7484 6.15232L15.052 6.14611L16.8756 6.11023H16.9018C16.9087 6.12817 16.9163 6.14611 16.9239 6.16405C16.9659 6.26547 17.0163 6.37793 17.075 6.49937L17.1143 6.57871V6.58492C17.1136 6.58671 17.1136 6.58866 17.1143 6.59044L17.1205 6.60355L17.1267 6.61597C17.1304 6.624 17.1346 6.63183 17.1391 6.63943C17.1433 6.6484 17.1481 6.65737 17.1529 6.66634C17.1847 6.72843 17.2219 6.7926 17.2557 6.85746C17.2813 6.90368 17.3082 6.94991 17.3358 6.99545L17.3654 7.04444L17.4103 7.11826L17.4655 7.20589C17.7811 7.6995 18.1593 8.15012 18.5908 8.54648C19.2205 9.12297 19.9531 9.57566 20.7504 9.88087H20.7559C20.7649 10.3921 20.7738 10.9048 20.7821 11.416L20.8021 12.2329Z" fill="white"/>
<path opacity="0.17" d="M21.6177 10.1245L21.6005 12.9926C21.0415 12.9858 20.4855 12.9112 19.9446 12.7705C19.11 12.5524 18.3229 12.1822 17.6228 11.6783C17.6228 11.9715 17.627 12.4089 17.627 12.9409C17.627 13.6488 17.627 14.051 17.6228 14.4781C17.6104 17.1165 17.676 17.6271 17.4441 18.6703C17.3959 18.9219 17.33 19.1697 17.2468 19.412C16.8011 20.654 15.8296 21.6489 14.8395 22.1781C14.5632 22.325 14.2732 22.4444 13.9736 22.5348V5.41133L16.7901 5.39478C16.788 5.61446 16.8185 5.83324 16.8804 6.04403C16.8873 6.0668 16.8942 6.08819 16.9018 6.11302L17.1661 6.10819C17.3609 6.80944 17.6912 7.46574 18.1382 8.04009C18.2791 8.21973 18.4312 8.39026 18.5936 8.55066C19.3443 9.15644 20.2067 9.32755 20.7477 9.37861C20.7511 9.54834 20.7553 9.71807 20.7587 9.8878C21.0391 9.98699 21.3261 10.0661 21.6177 10.1245Z" fill="black"/>
</svg>
